<?xml version="1.0" standalone="no"?>
<!DOCTYPE svg PUBLIC "-//W3C//DTD SVG 20010904//EN"
 "http://www.w3.org/TR/2001/REC-SVG-20010904/DTD/svg10.dtd">
<svg version="1.0" xmlns="http://www.w3.org/2000/svg"
 width="1280.000000pt" height="925.000000pt" viewBox="0 0 1280.000000 925.000000"
 preserveAspectRatio="xMidYMid meet">
<metadata>
Created by potrace 1.15, written by Peter Selinger 2001-2017
</metadata>
<g transform="translate(0.000000,925.000000) scale(0.100000,-0.100000)"
fill="#000000" stroke="none">
<path d="M0 8494 c0 -1165 18 -6274 26 -7405 l7 -1007 1346 -6 c3033 -13 6425
-36 8426 -56 550 -5 1444 -12 1986 -16 l987 -6 8 59 c4 32 8 2103 9 4603 l0
4545 -1635 -4 c-3258 -7 -10079 21 -10922 45 l-238 7 0 -759z m4697 644 c6 -7
13 -28 17 -46 3 -19 15 -45 26 -59 24 -31 18 -43 -20 -43 -30 0 -51 24 -43 47
2 6 -5 17 -17 23 -27 14 -40 50 -28 73 10 20 51 23 65 5z m-133 -18 c35 -13
36 -50 2 -50 -34 0 -61 27 -45 46 14 17 11 16 43 4z m196 -35 c-8 -21 -14 -25
-22 -17 -9 9 -7 17 7 32 10 11 20 18 22 16 2 -2 -1 -16 -7 -31z m-1192 13 c22
-22 14 -57 -13 -64 -41 -10 -75 3 -75 29 0 30 18 47 50 47 14 0 31 -5 38 -12z
m774 -23 c9 -19 9 -28 0 -37 -16 -16 -62 6 -62 30 0 40 45 45 62 7z m5708 7
c0 -10 -8 -28 -17 -41 -16 -23 -17 -23 -24 -5 -4 10 -8 29 -8 42 -1 17 5 22
24 22 17 0 25 -5 25 -18z m-9730 -8 c0 -24 -19 -54 -35 -54 -20 0 -19 29 2 52
20 22 33 23 33 2z m9570 -11 c-1 -20 -28 -55 -34 -45 -8 13 10 52 24 52 6 0
10 -3 10 -7z m-6536 -18 c25 -25 30 -56 12 -73 -13 -13 -20 -14 -34 -6 -26 17
-38 59 -22 78 16 20 25 20 44 1z m-1114 -30 c0 -8 -4 -17 -10 -20 -6 -4 -10 5
-10 20 0 15 4 24 10 20 6 -3 10 -12 10 -20z m-1860 6 c0 -12 -29 -35 -36 -28
-11 10 5 37 21 37 8 0 15 -4 15 -9z m4092 -41 c70 -73 77 -122 18 -135 -49
-11 -75 13 -88 81 -25 121 -7 134 70 54z m404 35 c10 -26 -16 -46 -55 -43 -38
3 -56 33 -29 49 22 15 78 10 84 -6z m3544 0 c0 -16 -27 -32 -37 -22 -3 4 -3
13 0 22 8 20 37 20 37 0z m-2059 -11 c11 -14 10 -15 -11 -12 -13 1 -25 9 -28
16 -5 17 23 15 39 -4z m106 -36 c-2 -13 -4 -5 -4 17 -1 22 1 32 4 23 2 -10 2
-28 0 -40z m310 15 c-3 -10 -5 -4 -5 12 0 17 2 24 5 18 2 -7 2 -21 0 -30z
m-4580 5 c32 -36 63 -91 63 -114 0 -32 -28 -39 -42 -9 -6 13 -23 29 -39 35
-35 15 -42 34 -28 77 13 39 19 40 46 11z m413 3 c18 -35 12 -96 -12 -118 -24
-21 -58 -37 -58 -27 0 4 11 20 25 36 22 26 25 36 19 79 -7 52 6 66 26 30z
m1090 -12 c6 -9 7 -25 4 -33 -7 -18 -47 -31 -63 -21 -14 8 -14 58 0 72 14 14
47 5 59 -18z m538 19 c13 -13 -2 -38 -23 -38 -21 0 -36 25 -23 38 7 7 17 12
23 12 6 0 16 -5 23 -12z m377 -13 c0 -22 -31 -33 -47 -17 -17 17 -1 44 24 40
15 -2 23 -10 23 -23z m3953 1 c2 -9 1 -25 -3 -34 -6 -15 -8 -14 -20 7 -14 27
-9 54 9 48 6 -2 13 -11 14 -21z m1369 -33 c-8 -75 -60 -102 -107 -56 -13 12
-9 13 30 11 44 -3 45 -2 43 26 -2 33 12 66 29 66 7 0 9 -16 5 -47z m-7587 13
c0 -14 -4 -28 -10 -31 -6 -4 -10 7 -10 24 0 17 5 31 10 31 6 0 10 -11 10 -24z
m2681 -8 c14 -26 -15 -58 -56 -61 -24 -2 -31 3 -39 27 -9 24 -7 31 11 46 27
22 69 15 84 -12z m4349 -2 c0 -42 -9 -68 -21 -60 -10 6 -12 77 -2 87 15 15 23
5 23 -27z m-8945 -6 c0 -13 -6 -25 -12 -27 -16 -6 -27 21 -19 43 9 23 31 11
31 -16z m9615 -11 c0 -23 -28 -25 -36 -4 -4 8 -3 22 0 31 5 13 9 14 21 4 8 -7
15 -21 15 -31z m-9070 6 c0 -14 -4 -25 -10 -25 -5 0 -10 11 -10 25 0 14 5 25
10 25 6 0 10 -11 10 -25z m1513 -7 c6 -18 -12 -50 -24 -43 -15 10 -11 55 5 55
8 0 16 -6 19 -12z m1855 -11 c4 -20 -25 -34 -40 -19 -15 15 -1 44 19 40 10 -2
19 -11 21 -21z m-874 0 c26 -19 16 -49 -24 -69 -29 -15 -37 -16 -48 -4 -11 11
-11 19 2 50 16 39 39 46 70 23z m2023 -3 c3 -9 2 -28 -3 -43 -7 -20 -16 -26
-39 -26 -25 0 -30 4 -33 28 -2 16 2 35 9 43 16 19 58 18 66 -2z m481 4 c36
-36 -6 -91 -46 -62 -26 18 -28 37 -6 58 19 19 36 20 52 4z m4982 -1 c98 -34
45 -198 -131 -407 -167 -199 -289 -354 -368 -470 -124 -181 -174 -238 -311
-353 -138 -116 -220 -197 -270 -270 l-34 -48 60 -60 c32 -34 74 -68 92 -75 18
-8 108 -88 200 -177 92 -89 228 -209 302 -267 83 -64 207 -176 323 -292 103
-103 194 -188 202 -188 9 0 20 -11 25 -25 11 -30 266 -294 324 -336 24 -18 52
-29 71 -29 42 0 64 -24 47 -51 -11 -16 9 -40 178 -214 125 -129 192 -205 195
-223 3 -15 13 -50 22 -79 27 -87 -8 -173 -71 -173 -14 0 -31 -8 -38 -18 -22
-31 -37 -34 -71 -14 -41 25 -83 34 -347 76 -155 25 -249 46 -337 76 -92 30
-139 40 -186 40 -35 0 -77 6 -93 14 -16 8 -87 22 -159 31 -71 10 -143 23 -160
30 l-30 13 30 12 c70 29 360 -7 605 -74 331 -91 718 -149 794 -120 27 10 18
62 -26 147 -38 75 -62 103 -282 323 -133 132 -311 308 -396 390 -85 82 -227
224 -315 315 -176 182 -319 310 -379 341 -21 11 -109 88 -195 170 -86 83 -181
171 -211 196 -86 72 -178 163 -216 214 l-36 48 239 252 c360 382 451 485 586
661 69 89 157 198 197 242 79 88 167 213 176 251 8 31 -16 59 -62 74 -46 16
-92 1 -405 -126 -141 -57 -289 -115 -330 -130 -41 -14 -157 -64 -258 -111
-101 -46 -197 -87 -215 -90 -17 -3 -60 -21 -96 -38 -66 -33 -85 -39 -243 -75
-49 -11 -119 -33 -157 -50 -88 -39 -221 -74 -335 -89 -139 -19 -191 -30 -267
-62 -39 -16 -76 -29 -83 -29 -7 0 -53 -20 -102 -45 -129 -64 -140 -66 -553
-91 -230 -14 -355 -26 -520 -53 -30 -5 -138 -12 -240 -15 -276 -9 -370 -23
-835 -120 -66 -14 -214 -37 -330 -51 -115 -15 -282 -39 -370 -55 -209 -37
-215 -38 -388 -55 -84 -8 -212 -30 -295 -49 -151 -36 -191 -43 -372 -72 -173
-27 -320 -75 -320 -105 0 -6 27 -37 59 -69 45 -44 73 -62 121 -78 81 -28 150
-69 150 -89 0 -28 -93 -8 -197 42 -137 67 -216 153 -199 220 14 54 210 119
486 159 91 14 203 37 250 51 47 14 144 32 215 41 160 18 246 31 254 39 3 4 -4
14 -15 23 -27 22 -33 41 -23 70 18 47 69 16 69 -41 0 -37 23 -50 76 -44 34 3
54 13 80 38 l34 33 0 -32 c0 -20 5 -32 14 -32 22 0 66 40 66 61 0 25 34 25 66
0 20 -16 31 -18 57 -10 18 5 118 20 222 34 105 13 226 34 270 45 106 28 200
45 372 70 78 11 171 29 206 40 60 19 68 19 148 5 46 -8 96 -15 111 -15 28 0
31 6 40 65 5 29 32 25 36 -5 2 -14 9 -31 14 -37 30 -37 372 21 429 73 18 16
24 16 52 5 58 -23 61 -23 85 14 25 40 43 41 52 4 4 -16 15 -26 35 -30 51 -11
223 -10 230 1 4 6 0 22 -9 35 -21 31 -20 35 5 35 11 0 33 -13 47 -30 22 -25
34 -30 70 -30 57 0 149 32 248 86 105 57 177 81 293 99 62 9 104 21 122 34 17
13 30 17 34 11 17 -27 155 2 352 74 67 25 157 52 200 60 43 8 105 29 137 45
32 17 67 31 79 31 11 0 48 16 83 35 34 19 70 35 79 35 34 0 180 83 265 150 14
11 58 26 100 34 56 10 89 22 129 49 29 21 58 37 63 37 6 0 45 15 87 34 162 73
427 115 521 83z m-865 -7 c9 -15 -4 -50 -20 -50 -21 0 -27 17 -15 40 12 22 25
26 35 10z m-9205 -31 c0 -25 -33 -22 -38 4 -2 12 3 17 17 17 15 0 21 -6 21
-21z m3795 -9 c0 -16 -6 -26 -17 -28 -14 -3 -18 3 -18 28 0 25 4 31 18 28 11
-2 17 -12 17 -28z m-1054 4 c11 -14 10 -18 -5 -29 -28 -21 -70 2 -59 32 7 18
48 16 64 -3z m6346 -21 c-3 -10 -5 -4 -5 12 0 17 2 24 5 18 2 -7 2 -21 0 -30z
m220 21 c1 -5 -2 -16 -7 -24 -12 -20 -35 2 -26 25 6 17 27 16 33 -1z m-9007
-9 c0 -18 -36 -39 -44 -26 -7 10 20 41 35 41 5 0 9 -7 9 -15z m1530 -11 c11
-28 0 -90 -16 -87 -5 1 -11 13 -12 25 -2 13 -11 31 -19 40 -19 22 -10 48 17
48 13 0 24 -10 30 -26z m2628 14 c7 -7 12 -25 12 -41 0 -25 -3 -28 -27 -25
-31 3 -43 38 -23 64 15 17 22 18 38 2z m327 0 c30 -13 32 -38 6 -62 -18 -16
-21 -16 -50 -1 -37 18 -39 38 -9 59 27 19 21 19 53 4z m133 -29 c-2 -15 -11
-25 -24 -27 -31 -4 -38 24 -13 49 25 25 42 14 37 -22z m-974 9 c18 -26 21 -64
6 -73 -16 -10 -60 23 -60 44 0 52 28 67 54 29z m213 6 c31 -8 35 -29 12 -58
-29 -37 -55 -33 -69 9 -17 51 -2 65 57 49z m-4727 -43 c0 -17 -10 -36 -25 -49
-25 -22 -25 -22 -25 -2 0 32 28 92 40 85 5 -3 10 -19 10 -34z m3787 -11 c25
-50 -30 -83 -61 -38 -19 27 -21 59 -4 76 15 15 47 -4 65 -38z m-3727 21 c0
-12 -29 -35 -36 -28 -11 10 5 37 21 37 8 0 15 -4 15 -9z m2614 -1 c15 -5 26
-17 26 -28 0 -27 -38 -72 -60 -72 -39 0 -47 69 -12 98 19 14 15 14 46 2z m180
-13 c9 -15 7 -21 -8 -32 -35 -26 -74 13 -44 43 16 16 38 12 52 -11z m1155 9
c23 -28 -17 -68 -45 -45 -15 12 -19 41 -7 52 11 12 40 8 52 -7z m1774 -1 c9
-8 18 -32 22 -54 3 -21 13 -47 20 -58 20 -25 18 -60 -2 -72 -38 -21 -87 37
-59 68 15 16 13 20 -14 46 -34 33 -37 47 -14 69 19 20 29 20 47 1z m525 -11
c4 -25 -20 -47 -42 -38 -16 6 -22 45 -9 58 14 14 48 1 51 -20z m-2670 -20 c4
-25 -22 -49 -43 -40 -15 5 -21 47 -8 60 14 14 48 1 51 -20z m280 14 c16 -16
15 -44 -3 -62 -31 -30 -67 13 -45 54 12 23 30 26 48 8z m6667 2 c11 -17 -13
-38 -64 -55 -27 -9 -69 -29 -95 -46 -30 -19 -55 -28 -67 -24 -27 9 -24 30 9
53 35 25 156 73 204 81 4 0 10 -4 13 -9z m-7151 -23 c8 -12 7 -20 -1 -28 -16
-16 -33 -2 -33 27 0 28 17 28 34 1z m1721 -7 c0 -36 -29 -33 -33 3 -3 23 0 28
15 25 12 -2 18 -12 18 -28z m-3645 -5 c7 -9 10 -18 7 -21 -10 -11 -37 5 -37
21 0 19 14 19 30 0z m4600 -35 c0 -33 -9 -43 -27 -29 -13 12 -18 61 -6 72 12
12 33 -15 33 -43z m2760 35 c0 -10 11 -15 35 -15 45 0 45 -16 -2 -35 -42 -18
-36 -30 15 -30 36 0 37 -1 40 -44 2 -24 -2 -49 -7 -54 -8 -8 -11 -2 -11 20 0
32 -14 51 -24 34 -10 -15 -45 -1 -66 27 -22 28 -26 82 -8 100 16 16 28 15 28
-3z m460 -22 c-1 -24 -2 -26 -11 -10 -5 9 -7 22 -4 27 10 17 15 11 15 -17z
m-9262 -1 c2 -7 -4 -15 -13 -18 -20 -8 -27 -1 -19 20 7 18 25 17 32 -2z m3240
-5 c5 -23 -15 -47 -33 -41 -20 8 -27 34 -14 51 16 18 43 13 47 -10z m1590 11
c26 -26 -2 -78 -43 -78 -44 0 -58 37 -25 70 23 23 50 26 68 8z m4172 -19 c0
-35 -22 -109 -32 -109 -10 0 -3 114 8 132 9 14 24 -2 24 -23z m-9209 5 c11
-14 10 -15 -11 -12 -13 1 -25 9 -28 16 -5 17 23 15 39 -4z m3243 -6 c22 -31
20 -58 -3 -58 -36 0 -51 12 -51 39 0 47 28 56 54 19z m1436 -33 c0 -45 -12
-60 -24 -29 -12 31 -7 74 9 74 11 0 15 -12 15 -45z m-345 21 c29 -21 12 -48
-27 -44 -37 4 -45 19 -23 42 20 19 26 20 50 2z m1314 0 c9 -10 9 -16 1 -21
-12 -7 -40 11 -40 26 0 14 26 10 39 -5z m944 0 c8 -19 -16 -60 -37 -64 -19 -4
-66 34 -66 54 0 16 16 22 61 23 22 1 39 -4 42 -13z m2747 -16 c0 -24 -6 -33
-27 -41 -15 -5 -38 -7 -51 -4 -20 5 -22 8 -12 20 7 8 21 15 31 15 11 0 27 9
36 20 22 26 23 26 23 -10z m-8370 -38 c0 -12 -3 -12 -15 -2 -8 7 -15 22 -15
34 1 21 1 21 15 2 8 -11 15 -26 15 -34z m2090 29 c16 -31 12 -41 -15 -41 -27
0 -41 20 -31 45 8 21 33 19 46 -4z m2448 7 c20 -20 15 -66 -8 -73 -29 -9 -70
20 -70 49 0 34 52 50 78 24z m3400 0 c19 -19 15 -48 -8 -48 -23 0 -35 22 -26
45 7 18 18 19 34 3z m-2524 -31 c22 -30 15 -59 -17 -65 -23 -5 -51 42 -43 74
8 32 32 29 60 -9z m-4454 8 c7 -9 10 -18 7 -21 -7 -8 -75 14 -82 27 -10 16 62
10 75 -6z m1792 -49 c0 -35 1 -36 40 -36 32 0 39 -3 36 -17 -5 -28 -53 -40
-76 -20 -13 12 -28 15 -55 10 -32 -5 -37 -3 -37 14 0 52 -57 44 -126 -17 -41
-35 -94 -42 -94 -12 0 20 141 132 165 132 7 0 18 -7 25 -15 7 -8 28 -15 47
-15 27 0 36 5 40 21 5 18 8 19 20 6 8 -8 15 -31 15 -51z m6719 43 c19 -10 46
-64 55 -108 5 -24 0 -40 -19 -69 -29 -43 -135 -152 -147 -152 -13 0 -22 37
-15 59 3 11 25 29 48 40 43 21 97 89 97 123 0 20 -32 40 -53 32 -8 -3 -29 -23
-46 -45 -47 -58 -88 -51 -141 23 -37 50 -31 60 53 87 98 31 123 33 168 10z
m-6436 -5 c10 -10 15 -29 13 -48 -3 -26 -8 -32 -33 -34 -19 -3 -33 2 -42 14
-14 19 -18 66 -6 77 12 13 51 7 68 -9z m-3739 -19 c34 -34 31 -88 -5 -93 -25
-4 -25 2 -6 66 14 44 -16 22 -37 -28 -11 -27 -24 -50 -28 -50 -15 0 -40 38
-45 71 -6 34 -6 34 11 12 22 -31 42 -29 50 5 13 51 23 54 60 17z m2494 -3 c0
-37 -21 -65 -46 -61 -29 6 -31 53 -2 73 33 24 48 20 48 -12z m1444 -1 c39 -43
-8 -78 -86 -65 -43 7 -47 20 -17 58 25 32 77 36 103 7z m2266 -11 c0 -16 -4
-30 -9 -30 -12 0 -24 37 -16 50 12 20 25 10 25 -20z m4115 20 c8 -13 -13 -50
-29 -50 -19 0 -29 30 -15 46 13 16 35 18 44 4z m1260 0 c8 -13 -3 -50 -15 -50
-12 0 -20 28 -14 45 7 17 20 20 29 5z m-9255 -25 c0 -8 -9 -19 -20 -25 -16 -9
-20 -21 -20 -63 1 -48 2 -50 15 -33 19 25 29 15 21 -19 -7 -29 -39 -34 -74 -9
-21 14 -21 17 -7 37 9 12 20 40 26 62 16 61 59 97 59 50z m650 9 c11 -13 10
-19 -7 -36 -23 -22 -43 -17 -43 11 0 17 18 41 31 41 4 0 12 -7 19 -16z m2130
-24 c0 -25 -29 -40 -57 -29 -29 11 -29 33 -1 53 26 18 58 5 58 -24z m746 26
c9 -23 -15 -56 -40 -56 -31 0 -41 28 -20 51 20 22 52 25 60 5z m-6116 -59 c0
-10 -5 -17 -12 -15 -14 5 -30 57 -21 71 7 12 32 -31 33 -56z m6780 44 c0 -10
-7 -24 -15 -31 -12 -10 -16 -9 -21 4 -3 9 -4 23 0 31 8 21 36 19 36 -4z
m-1922 -34 c2 -15 -1 -27 -7 -27 -14 0 -33 38 -26 51 11 17 30 4 33 -24z
m1387 -12 c0 -39 -1 -40 -35 -40 -31 0 -35 3 -38 28 -5 46 4 59 40 55 31 -3
33 -5 33 -43z m3052 28 c2 -6 -4 -16 -15 -22 -23 -12 -59 9 -48 28 10 15 58
10 63 -6z m-3489 -9 c50 -35 6 -84 -75 -84 -49 0 -56 17 -26 60 30 45 61 52
101 24z m-5443 -14 c27 -30 11 -35 -21 -6 -21 18 -24 25 -13 26 9 0 24 -9 34
-20z m739 11 c6 -9 -43 -35 -52 -27 -2 3 -2 12 1 21 7 16 42 21 51 6z m4531
-25 c0 -30 -31 -44 -51 -24 -24 24 -11 50 23 46 20 -2 28 -9 28 -22z m1435 12
c0 -22 -33 -48 -63 -48 l-31 0 29 30 c29 30 65 40 65 18z m3072 -17 c1 -5 19
-18 38 -28 39 -22 76 -86 86 -152 18 -119 -45 -222 -276 -451 -86 -85 -162
-159 -168 -165 -6 -5 -35 -39 -64 -75 -64 -79 -268 -290 -281 -290 -5 0 -27
16 -49 35 -42 36 -124 73 -135 61 -10 -10 35 -53 137 -129 52 -39 145 -114
205 -166 61 -53 157 -133 215 -177 58 -45 165 -137 239 -203 74 -67 153 -135
176 -150 55 -37 935 -910 1084 -1076 137 -152 211 -242 211 -256 0 -16 -115
18 -301 90 -132 50 -415 135 -699 207 -118 31 -290 77 -381 104 -136 40 -454
110 -497 110 -6 0 -34 -20 -62 -45 -70 -62 -86 -62 -355 0 -104 24 -309 69
-455 100 -146 31 -341 74 -434 97 -137 33 -173 38 -193 29 -29 -13 -56 -14
-48 -2 3 6 -3 14 -13 20 -28 15 -370 101 -403 101 -38 0 -37 -15 1 -29 32 -11
40 -38 15 -47 -20 -8 -9 -24 16 -24 22 0 23 -4 7 -30 -16 -26 -4 -46 48 -82
43 -29 62 -73 63 -145 1 -34 5 -43 19 -43 9 0 82 30 162 66 280 128 386 161
378 117 -10 -56 -565 -339 -958 -491 -107 -41 -209 -77 -226 -79 -59 -9 -60
-2 -30 300 30 315 32 355 10 385 -19 28 -49 28 -91 0 -47 -33 -41 -39 17 -17
l50 19 0 -24 c0 -53 -32 -414 -56 -636 -52 -484 -83 -671 -116 -691 -14 -9
-40 7 -353 226 -143 100 -318 217 -390 260 -122 72 -165 105 -165 126 0 5 7 9
15 9 8 0 91 52 185 115 93 64 180 119 192 124 13 5 33 22 45 39 12 17 64 59
115 93 51 34 126 87 166 118 40 31 102 74 137 96 73 47 95 64 95 76 0 16 -20
9 -62 -21 -22 -16 -47 -30 -55 -30 -8 0 -29 -14 -46 -31 -17 -18 -50 -42 -72
-53 -22 -12 -74 -49 -115 -82 -112 -90 -347 -259 -505 -363 -189 -125 -221
-156 -150 -144 26 4 36 2 41 -11 3 -9 2 -22 -4 -29 -6 -7 -13 -88 -15 -187 -3
-96 -10 -192 -17 -214 -18 -60 -2 -66 75 -28 63 31 95 39 95 26 0 -11 -31 -32
-163 -106 -70 -39 -143 -87 -162 -105 -19 -18 -36 -33 -40 -33 -12 0 -3 71 21
160 13 52 27 129 31 171 16 200 -63 433 -207 612 -36 45 -72 93 -80 105 -9 13
-56 45 -105 70 -103 54 -110 67 -71 134 28 50 68 184 92 313 33 181 -2 402
-96 592 -27 56 -50 106 -50 111 0 5 -13 12 -29 15 -20 4 -31 14 -35 32 -14 57
-198 205 -253 205 -14 0 -53 8 -89 17 -35 9 -66 14 -70 10 -12 -12 2 -18 82
-41 43 -12 79 -27 81 -33 6 -17 -100 -46 -137 -38 -16 4 -53 27 -81 52 -48 44
-54 46 -102 44 -29 -2 -70 -4 -92 -5 l-40 -1 3 52 c3 38 0 54 -10 57 -7 2 -32
8 -56 13 -41 10 -42 10 -26 -8 16 -18 15 -20 -19 -34 -49 -20 -49 -20 -42 19
6 31 5 34 -19 34 -15 -1 -34 6 -44 15 -23 20 -80 43 -130 52 -23 4 -52 15 -66
26 -13 10 -35 19 -48 19 l-23 1 24 19 c27 24 49 25 75 5 26 -20 33 -19 39 4 3
14 20 22 63 31 33 7 104 25 159 40 55 16 165 38 245 50 80 12 251 39 380 60
357 59 1245 193 1420 215 63 8 216 21 340 30 124 9 272 22 330 30 58 8 238 21
400 30 162 9 322 20 355 25 33 4 62 6 63 5 2 -2 -15 -20 -37 -40 -36 -33 -53
-65 -35 -65 3 0 52 25 108 55 56 30 132 66 169 80 37 13 102 42 144 64 86 43
213 86 398 134 155 40 306 44 370 11 120 -63 162 -241 80 -348 -18 -24 -31
-47 -28 -50 3 -2 -5 -19 -17 -35 -36 -52 3 -39 67 21 99 95 118 161 92 331
-10 70 -19 91 -39 93 -6 1 -14 2 -19 3 -5 0 -14 15 -22 32 -12 30 -11 33 14
55 33 28 128 65 186 72 25 3 53 14 64 25 11 11 67 42 125 69 58 27 117 57 131
67 15 10 60 31 101 46 41 16 102 41 134 56 57 27 88 27 98 0z m-9409 3 c9 -10
-4 -34 -19 -34 -16 0 -16 2 -8 24 6 17 16 20 27 10z m2402 -14 c0 -23 -49 -20
-53 3 -3 15 2 18 25 15 17 -2 28 -9 28 -18z m3522 -5 c24 -21 26 -26 13 -35
-32 -22 -96 12 -84 43 9 24 38 21 71 -8z m-3696 -5 c27 -15 25 -64 -3 -84 -30
-21 -98 -21 -98 -1 0 28 30 76 53 85 29 11 26 11 48 0z m2003 -3 c35 -25 2
-89 -38 -74 -10 4 -16 18 -16 40 0 49 18 60 54 34z m135 -4 c11 -21 -3 -53
-23 -53 -21 0 -38 27 -31 50 8 24 40 26 54 3z m1369 -12 c4 -29 -9 -44 -31
-35 -17 6 -23 44 -10 58 14 14 38 0 41 -23z m-5204 -8 c-9 -37 -25 -56 -36
-45 -6 6 -3 22 6 41 20 39 39 41 30 4z m744 5 c-2 -13 -11 -24 -20 -26 -21 -4
-24 18 -6 36 19 19 30 14 26 -10z m422 -5 c0 -20 -3 -24 -11 -16 -7 7 -9 19
-6 27 10 24 17 19 17 -11z m-2407 -72 c-7 -62 -17 -81 -35 -63 -17 17 -13 84
8 124 16 31 17 32 25 11 4 -13 6 -45 2 -72z m5874 73 c8 -21 -13 -42 -28 -27
-13 13 -5 43 11 43 6 0 13 -7 17 -16z m-3160 -51 c-3 -10 -5 -2 -5 17 0 19 2
27 5 18 2 -10 2 -26 0 -35z m1173 21 c0 -14 -4 -23 -10 -19 -5 3 -10 15 -10
26 0 10 5 19 10 19 6 0 10 -12 10 -26z m-1575 -22 c-21 -5 -40 12 -30 28 5 8
13 6 27 -7 18 -16 19 -18 3 -21z m981 27 c3 -6 1 -16 -5 -22 -13 -13 -42 0
-49 21 -5 15 44 16 54 1z m3600 -25 c16 -23 16 -27 1 -41 -22 -22 -47 -1 -47
38 0 37 23 38 46 3z m-5018 -22 c12 -34 5 -79 -13 -86 -16 -6 -74 29 -82 50
-8 20 35 64 63 64 15 0 25 -9 32 -28z m4918 2 c12 -46 -53 -93 -84 -62 -17 17
-15 32 9 62 27 35 66 35 75 0z m317 14 c5 -16 -10 -48 -24 -48 -16 0 -22 29
-9 45 15 18 27 19 33 3z m-3998 -12 c25 -18 13 -46 -20 -46 -27 0 -41 20 -31
45 7 19 26 19 51 1z m2373 2 c20 -20 14 -48 -18 -84 -16 -19 -33 -46 -36 -60
-10 -41 -24 -8 -24 59 0 44 5 62 20 77 23 23 41 25 58 8z m629 -4 c8 -21 -13
-42 -28 -27 -13 13 -5 43 11 43 6 0 13 -7 17 -16z m212 7 c19 -12 6 -41 -19
-41 -25 0 -38 29 -19 41 8 5 16 9 19 9 3 0 11 -4 19 -9z m1338 -25 c-4 -9 -13
-16 -22 -16 -18 0 -19 5 -4 32 13 24 35 9 26 -16z m-2451 9 c9 -23 -15 -45
-47 -45 -31 0 -40 25 -17 48 17 17 58 15 64 -3z m610 -1 c13 -9 39 -20 56 -23
43 -9 46 -29 6 -45 -55 -22 -121 -28 -142 -13 -18 14 -18 15 4 55 26 46 38 50
76 26z m744 1 c13 -16 6 -35 -14 -35 -18 0 -39 27 -31 40 9 14 31 12 45 -5z
m5104 -77 c3 -51 8 -192 11 -313 6 -249 12 -315 28 -315 5 0 33 17 61 39 71
53 136 95 141 90 11 -11 -39 -71 -90 -109 -38 -28 -54 -45 -47 -52 6 -6 117
-14 248 -19 232 -9 273 -13 261 -25 -3 -3 -121 -11 -261 -18 -160 -8 -261 -17
-268 -24 -8 -8 0 -34 31 -97 22 -48 41 -91 41 -96 0 -22 -19 -5 -64 57 -27 36
-52 62 -57 57 -10 -11 -25 -179 -49 -573 -30 -482 -64 -887 -76 -899 -7 -7 6
395 16 534 7 84 6 133 -1 160 -8 28 -9 151 -5 405 4 228 3 370 -3 379 -11 17
-23 11 -158 -91 -51 -39 -98 -68 -104 -66 -7 2 38 57 104 125 l117 120 -52 23
c-51 23 -52 24 -23 27 89 10 92 17 35 93 -64 86 -48 94 51 25 l64 -46 7 48 c3
26 7 129 7 229 1 219 11 424 21 424 4 0 10 -42 14 -92z m-11566 55 c-4 -20
-35 -30 -50 -15 -15 15 0 32 28 32 19 0 25 -5 22 -17z m1023 -48 c-11 -25 -25
-45 -30 -45 -18 0 -13 20 16 69 32 55 42 39 14 -24z m4479 45 c0 -11 -6 -20
-14 -20 -18 0 -29 16 -21 30 11 18 35 11 35 -10z m-3090 -26 c14 -36 -3 -64
-40 -64 -38 0 -44 12 -26 55 18 43 52 48 66 9z m2393 -73 c-32 -50 -56 15 -27
71 l18 33 10 -44 c6 -29 6 -49 -1 -60z m1505 90 c8 -4 12 -19 10 -32 -4 -30
-51 -35 -56 -6 -8 39 15 58 46 38z m-1682 -36 c-7 -29 -26 -34 -26 -7 0 18 20
45 28 37 2 -2 2 -16 -2 -30z m2258 19 c8 -21 -11 -44 -36 -44 -21 0 -33 22
-24 45 7 20 52 19 60 -1z m-3735 -3 c12 -8 12 -12 2 -25 -15 -18 -37 -21 -46
-6 -7 11 11 40 24 40 3 0 12 -4 20 -9z m2439 -31 c8 -17 33 -41 58 -56 50 -29
56 -49 19 -66 -22 -10 -28 -8 -49 15 -14 15 -34 27 -45 27 -53 0 -65 28 -34
81 22 37 35 37 51 -1z m575 17 c6 -17 -3 -67 -13 -67 -14 0 -42 51 -36 66 7
18 42 18 49 1z m372 -17 c0 -13 -6 -25 -12 -27 -16 -6 -27 21 -19 43 9 23 31
11 31 -16z m-481 -9 c16 -31 12 -41 -28 -55 -48 -17 -71 18 -40 62 21 31 50
28 68 -7z m-5734 4 c0 -16 -27 -32 -37 -21 -7 7 16 36 28 36 5 0 9 -7 9 -15z
m1296 0 c6 -16 -12 -45 -27 -45 -10 0 -12 44 -2 53 11 11 23 8 29 -8z m3305 5
c29 -16 23 -38 -13 -48 -53 -14 -87 15 -56 46 15 15 43 15 69 2z m2402 -2 c7
-21 -12 -48 -33 -48 -22 0 -25 12 -10 41 12 21 36 25 43 7z m-7115 -15 c2 -9
-7 -13 -27 -13 -30 0 -39 9 -24 24 11 10 46 3 51 -11z m2356 -24 c33 -39 33
-66 1 -81 -58 -26 -98 34 -59 90 20 29 27 28 58 -9z m4631 6 c0 -11 -7 -21
-15 -22 -24 -4 -41 12 -34 31 9 24 49 17 49 -9z m-4379 -10 c10 -41 -1 -55
-45 -55 -51 0 -57 11 -25 49 32 38 61 40 70 6z m2368 3 c13 -22 -14 -54 -38
-45 -16 6 -22 48 -9 61 11 11 35 3 47 -16z m1466 -33 c0 -27 -27 -34 -48 -13
-16 16 -15 45 1 51 21 8 47 -13 47 -38z m265 5 c0 -16 -6 -26 -19 -28 -25 -5
-39 12 -31 38 10 31 50 24 50 -10z m-5701 1 c7 -10 -22 -37 -30 -28 -9 8 3 37
15 37 5 0 12 -4 15 -9z m977 -12 c-13 -11 -26 -17 -29 -14 -8 8 20 35 37 35
12 -1 11 -5 -8 -21z m3224 1 c0 -9 -11 -16 -27 -18 -30 -4 -36 6 -16 26 16 16
43 11 43 -8z m1650 0 c0 -9 -11 -16 -27 -18 -27 -3 -38 14 -21 32 12 12 48 2
48 -14z m-6095 -5 c15 -19 4 -52 -21 -60 -20 -7 -49 9 -49 26 0 12 37 49 49
49 5 0 14 -7 21 -15z m5281 -5 c17 -10 27 -40 13 -40 -16 0 -44 23 -44 35 0
18 5 18 31 5z m173 -12 c12 -19 -18 -72 -37 -65 -17 5 -21 55 -6 73 14 17 28
14 43 -8z m-326 -24 c-5 -26 -38 -31 -38 -7 0 24 21 46 33 34 5 -5 7 -17 5
-27z m1102 -7 c0 -29 -56 -97 -81 -97 -33 0 -25 44 11 57 19 7 30 18 30 30 0
23 8 33 27 33 7 0 13 -10 13 -23z m-3685 -8 c5 -13 2 -25 -6 -30 -19 -11 -29
-2 -29 27 0 30 26 32 35 3z m1784 3 c7 -13 7 -22 -1 -30 -16 -16 -48 4 -48 28
0 26 36 27 49 2z m-3369 -11 c0 -19 -23 -35 -34 -24 -7 8 12 43 24 43 6 0 10
-9 10 -19z m3878 -2 c2 -9 -5 -19 -14 -23 -21 -8 -50 17 -39 34 10 16 49 8 53
-11z m1680 -3 c4 -20 -15 -46 -35 -46 -22 0 -27 29 -7 51 20 22 37 20 42 -5z
m-5184 8 c26 -10 40 -43 25 -60 -25 -30 -89 -11 -89 26 0 32 30 47 64 34z
m971 -14 c8 -26 -11 -60 -34 -60 -24 0 -33 23 -21 55 11 30 46 33 55 5z m2286
3 c8 -9 33 -25 57 -35 45 -20 52 -41 20 -62 -13 -8 -21 -6 -36 7 -10 9 -34 19
-53 23 -61 10 -61 10 -42 49 18 39 33 44 54 18z m1053 0 c24 -83 17 -136 -17
-131 -15 2 -23 13 -29 38 -7 32 -2 83 9 103 8 13 32 7 37 -10z m-2979 -29 c0
-22 -5 -29 -20 -29 -23 0 -32 30 -14 51 18 22 34 11 34 -22z m-906 4 c11 -30
6 -38 -29 -38 -35 0 -45 13 -30 40 14 27 49 26 59 -2z m-1584 1 c11 -16 -3
-56 -22 -63 -9 -4 -23 0 -31 8 -13 13 -13 18 2 40 17 27 40 34 51 15z m877
-15 c10 -22 10 -28 -6 -40 -27 -20 -56 -1 -56 36 0 25 4 30 25 30 18 0 29 -8
37 -26z m-1192 7 c0 -14 -28 -33 -39 -27 -16 10 -1 36 20 36 10 0 19 -4 19 -9z
m6110 -6 c0 -16 -27 -32 -37 -22 -3 4 -3 13 0 22 8 20 37 20 37 0z m408 3 c-7
-21 -36 -34 -49 -21 -6 6 -8 16 -5 22 10 15 59 14 54 -1z m-3480 -35 c-3 -38
-24 -56 -34 -29 -9 24 4 66 22 66 11 0 14 -9 12 -37z m172 6 c7 -11 9 -32 6
-45 -5 -19 -13 -24 -36 -24 -38 0 -52 40 -25 70 23 26 41 25 55 -1z m2114 -5
c3 -8 0 -26 -6 -40 -16 -36 -52 -29 -56 11 -6 46 46 71 62 29z m-3969 -24 c0
-34 -1 -35 -43 -38 -31 -2 -44 1 -48 13 -10 24 35 67 66 63 21 -3 25 -8 25
-38z m1285 -10 c0 -15 -9 -35 -20 -45 -28 -26 -54 -3 -46 39 12 62 66 67 66 6z
m2404 27 c8 -12 7 -20 -1 -28 -16 -16 -33 -2 -33 27 0 28 17 28 34 1z m1750 7
c19 -19 22 -78 4 -72 -7 3 -21 19 -31 36 -26 45 -7 70 27 36z m-621 -31 c-5
-13 -7 -13 -21 0 -8 8 -11 20 -7 27 10 16 35 -7 28 -27z m-5563 5 c-1 -29 -22
-58 -44 -58 -20 0 -21 29 0 58 20 29 44 29 44 0z m5390 -30 c0 -25 -35 -41
-60 -28 -27 15 -25 35 7 60 26 20 28 20 40 4 7 -10 13 -26 13 -36z m-3825 -4
c0 -19 -5 -29 -15 -29 -16 0 -25 28 -16 51 10 25 31 10 31 -22z m3465 21 c15
-18 6 -45 -15 -45 -18 0 -30 24 -21 45 7 19 20 19 36 0z m-5567 -11 c9 -10
-15 -54 -30 -54 -16 0 -17 32 -1 48 13 13 22 15 31 6z m722 -18 c21 -32 5 -69
-28 -64 -26 4 -34 36 -17 67 14 27 26 26 45 -3z m4335 -7 c13 -24 13 -29 -3
-29 -24 0 -51 26 -44 43 8 20 33 12 47 -14z m-6070 -69 c-12 -22 -30 -18 -30
6 0 8 8 31 17 52 l17 37 4 -37 c2 -20 -2 -46 -8 -58z m934 61 c13 -20 -30 -91
-55 -91 -13 0 -11 26 5 65 14 33 38 46 50 26z m3740 -13 c26 -41 29 -72 9 -97
-18 -22 -20 -22 -36 -6 -25 24 -22 125 4 125 5 0 15 -10 23 -22z m-760 -13 c8
-22 -11 -65 -28 -65 -23 0 -35 30 -23 57 12 26 42 31 51 8z m331 -4 c9 -29 -5
-72 -23 -69 -26 5 -37 34 -24 62 14 31 38 34 47 7z m613 -13 c-4 -39 -25 -48
-34 -14 -7 29 1 46 22 46 11 0 14 -9 12 -32z m1922 13 c0 -10 -7 -24 -16 -31
-12 -11 -18 -10 -31 3 -21 21 -9 47 22 47 18 0 25 -5 25 -19z m-6192 -3 c19
-19 14 -37 -14 -44 -35 -9 -63 18 -44 40 15 19 41 21 58 4z m-340 -35 c-3 -32
-44 -46 -54 -19 -8 21 13 46 38 46 15 0 19 -6 16 -27z m918 4 c32 -28 27 -57
-9 -57 -18 0 -28 8 -37 29 -21 52 2 65 46 28z m2899 -27 c0 -16 -6 -26 -17
-28 -14 -3 -18 3 -18 28 0 25 4 31 18 28 11 -2 17 -12 17 -28z m-2655 -20 c39
-55 5 -106 -42 -63 -27 24 -38 54 -26 76 13 26 44 20 68 -13z m3160 1 c0 -38
-26 -67 -46 -50 -30 24 -10 79 28 79 13 0 18 -8 18 -29z m-2980 -12 c7 -11 9
-32 6 -46 -10 -36 -57 -29 -71 10 -8 24 -6 31 10 43 26 19 42 18 55 -7z m2848
-15 c2 -22 -4 -37 -24 -57 -15 -15 -33 -27 -40 -27 -22 0 -17 64 7 94 27 35
53 30 57 -10z m464 -26 c-9 -9 -12 -4 -11 23 0 32 1 33 11 11 8 -17 8 -26 0
-34z m298 32 c13 -24 -2 -60 -25 -60 -16 0 -30 42 -21 65 8 21 33 19 46 -5z
m-5282 -17 c-5 -26 -38 -29 -38 -4 0 15 6 21 21 21 14 0 19 -5 17 -17z m132
-18 c0 -18 -5 -25 -20 -25 -21 0 -24 8 -14 34 10 25 34 19 34 -9z m438 -13 c4
-28 -24 -40 -45 -19 -21 21 -9 49 19 45 15 -2 24 -11 26 -26z m3643 4 c13 -28
-7 -81 -31 -81 -22 0 -36 49 -22 80 15 32 39 32 53 1z m-3776 4 c3 -5 4 -14 0
-20 -8 -13 -35 -1 -35 16 0 16 26 19 35 4z m373 -12 c8 -8 9 -15 1 -25 -13
-15 -28 -16 -48 -4 -12 8 -12 12 -2 25 16 19 33 20 49 4z m4068 -57 c-6 -42
-28 -66 -51 -57 -14 5 -16 14 -10 44 3 20 14 48 22 61 15 24 16 24 30 5 9 -12
12 -32 9 -53z m-4586 11 c0 -27 -21 -44 -37 -31 -9 8 -10 16 -2 30 12 24 39
25 39 1z m635 -2 c4 -6 1 -17 -5 -26 -15 -18 -42 0 -33 22 6 16 29 19 38 4z
m4123 -26 c2 -25 -3 -37 -25 -53 -26 -21 -28 -21 -40 -5 -15 20 -9 50 15 77
23 26 46 17 50 -19z m-3878 -4 c0 -17 -39 -50 -60 -50 -25 0 -27 35 -2 49 22
13 62 14 62 1z m3550 -12 c0 -25 -27 -58 -47 -58 -18 0 -17 30 3 58 20 28 44
29 44 0z m-4720 -18 c0 -13 -7 -20 -20 -20 -13 0 -20 7 -20 20 0 13 7 20 20
20 13 0 20 -7 20 -20z m4523 14 c3 -4 2 -15 -4 -26 -7 -14 -19 -18 -41 -16
-41 4 -46 21 -11 35 34 13 48 15 56 7z m-3897 -29 c8 -34 -2 -57 -23 -53 -19
3 -29 38 -19 64 9 23 35 16 42 -11z m3722 -61 c4 -29 -23 -51 -43 -34 -18 15
-19 32 -3 48 18 18 42 10 46 -14z m297 -14 c17 -34 13 -50 -14 -50 -21 0 -41
19 -41 40 0 17 18 40 32 40 4 0 15 -14 23 -30z m-148 -34 c-8 -19 -37 -21 -37
-3 0 7 5 18 12 25 15 15 33 -1 25 -22z m-3665 -23 c21 -19 24 -53 5 -53 -20 0
-37 22 -37 47 0 27 7 29 32 6z m-374 -21 c2 -13 -3 -25 -13 -28 -22 -9 -29 1
-21 31 8 31 30 28 34 -3z m-424 -1 c35 -39 -1 -93 -39 -61 -18 15 -19 52 -3
68 16 16 22 15 42 -7z m1323 -358 c-4 -71 -10 -324 -13 -563 -5 -309 -10 -444
-19 -465 l-12 -30 -11 25 c-5 14 -14 65 -20 114 -7 64 -14 91 -26 98 -22 13
-20 53 5 77 19 18 20 21 5 49 -21 40 -20 75 3 301 11 102 24 240 30 306 11
121 34 215 53 215 7 0 9 -41 5 -127z m3070 12 c22 -19 24 -24 11 -25 -9 0 -30
11 -45 25 -22 19 -24 24 -11 25 9 0 30 -11 45 -25z m-4467 -95 c0 -5 8 -18 19
-29 15 -15 29 -17 93 -13 105 6 156 -21 302 -164 31 -31 120 -221 133 -286 4
-20 31 -55 80 -103 42 -41 73 -81 73 -92 0 -13 -16 -28 -50 -47 -62 -34 -86
-65 -105 -135 -9 -31 -20 -73 -26 -94 -12 -47 -74 -117 -102 -117 -11 0 -28 7
-37 15 -10 9 -50 19 -92 24 -82 9 -103 18 -165 69 -43 34 -43 34 -43 10 0 -20
-7 -27 -39 -36 -21 -7 -43 -12 -50 -12 -17 0 -14 79 4 86 13 5 12 11 -6 41
-20 32 -23 56 -31 270 -9 226 0 586 16 612 9 14 26 15 26 1z m10203 -6 c10
-10 -12 -44 -29 -44 -20 0 -30 30 -13 41 17 10 33 11 42 3z m162 -34 c7 -12
-12 -50 -25 -50 -6 0 -10 14 -10 30 0 30 21 42 35 20z m-5770 -70 l39 -40 -32
-33 c-18 -18 -32 -38 -32 -45 0 -31 58 -4 168 80 69 52 152 36 152 -30 0 -25
-44 -105 -86 -155 -26 -31 -30 -47 -13 -47 24 0 141 65 159 88 12 14 26 22 35
19 8 -4 21 0 29 8 8 8 25 15 37 15 12 0 30 7 40 16 16 14 18 14 29 -5 53 -100
-215 -372 -728 -738 -86 -62 -191 -131 -232 -155 -41 -23 -106 -66 -145 -94
-38 -29 -92 -62 -119 -75 -91 -42 -418 -272 -538 -379 -50 -44 -61 -77 -33
-100 8 -7 19 -27 23 -44 8 -28 12 -31 42 -28 20 1 40 -4 52 -15 33 -30 124
-29 224 3 83 26 91 27 158 15 82 -13 148 -50 178 -99 l20 -32 -38 -38 c-22
-20 -60 -52 -86 -69 -44 -30 -61 -53 -39 -53 5 0 32 16 60 35 28 19 77 47 108
61 72 31 260 156 334 221 164 144 697 333 941 333 118 0 173 -18 286 -93 114
-75 184 -151 231 -249 114 -240 91 -521 -58 -718 -168 -223 -445 -476 -726
-663 -66 -44 -179 -124 -252 -178 -72 -55 -138 -99 -147 -99 -17 0 -405 -197
-426 -216 -25 -24 4 -17 118 28 152 59 311 134 352 167 50 40 173 111 192 111
32 0 30 -87 -3 -126 -22 -27 12 -46 98 -54 83 -9 144 -29 176 -58 18 -16 20
-16 46 16 31 36 49 39 111 17 52 -18 83 -19 78 -2 -9 26 -62 38 -215 47 -87 5
-174 14 -194 20 l-36 10 -6 83 -7 82 43 39 c47 43 109 75 147 76 54 0 110 -53
170 -161 l30 -54 0 40 c-1 29 -9 51 -30 79 -40 53 -38 72 7 91 40 17 36 32
-12 37 -23 2 -31 9 -33 27 -3 18 16 43 90 115 53 52 114 101 140 114 37 17 53
33 79 79 17 32 39 66 48 77 9 10 72 47 141 82 69 35 159 82 200 105 60 32 81
39 105 34 91 -21 147 1 169 64 10 30 29 43 196 132 102 54 204 106 226 115
l42 16 62 -51 c70 -56 268 -158 372 -192 77 -25 86 -21 117 40 34 66 55 179
92 474 10 82 15 101 33 112 12 8 107 52 211 99 105 46 219 98 255 115 36 17
72 31 81 31 9 0 36 15 59 34 24 19 58 37 76 40 17 4 60 25 95 48 35 23 95 57
133 76 38 18 118 66 178 104 l110 71 156 -22 c255 -36 457 -79 620 -132 122
-40 152 -54 152 -68 0 -40 -23 -43 -110 -15 -102 32 -255 62 -380 74 -52 5
-142 23 -199 40 -134 39 -223 40 -298 6 -28 -14 -114 -62 -190 -107 -179 -107
-503 -271 -668 -338 -71 -29 -154 -66 -184 -82 -30 -16 -60 -29 -68 -29 -18 0
-22 -23 -33 -205 -14 -232 -50 -355 -125 -425 -42 -39 -91 -34 -211 24 -78 37
-110 47 -137 44 -20 -2 -33 0 -30 5 14 23 -140 137 -187 137 -32 0 -111 -48
-168 -103 -33 -32 -45 -39 -51 -28 -7 11 -20 8 -67 -12 -33 -14 -69 -29 -81
-32 -38 -11 -26 -34 30 -59 28 -12 77 -44 107 -70 48 -41 59 -46 85 -41 125
29 266 33 320 11 56 -24 162 -139 179 -194 8 -26 21 -60 30 -77 9 -16 16 -44
16 -61 0 -17 10 -44 22 -59 29 -37 19 -50 -71 -100 -53 -29 -83 -54 -109 -91
-21 -28 -53 -69 -73 -92 l-35 -41 -56 68 c-61 74 -147 137 -236 172 -46 19
-78 23 -169 23 l-113 1 -75 -76 c-41 -42 -92 -85 -113 -94 -50 -23 -70 -42
-104 -94 -28 -45 -36 -81 -18 -81 5 0 26 24 45 54 37 54 68 76 110 76 23 0 44
21 88 89 12 19 47 48 77 65 72 41 137 41 234 1 89 -37 209 -117 224 -149 17
-39 5 -55 -64 -87 -66 -29 -81 -52 -41 -63 41 -11 63 -6 88 20 25 27 35 28
164 8 33 -5 38 -4 28 7 -31 32 4 96 101 187 74 70 152 106 209 97 89 -15 277
-105 291 -140 10 -27 44 -16 103 32 164 132 502 450 979 923 292 289 567 554
610 588 89 72 382 268 429 288 17 7 59 16 93 20 34 3 62 10 62 13 0 4 -7 17
-16 29 -14 20 -14 23 0 28 17 6 66 -20 66 -35 0 -5 -20 -38 -45 -75 -43 -65
-74 -140 -62 -152 7 -8 44 13 93 52 53 44 120 74 166 74 26 0 41 6 52 21 9 14
21 19 31 15 40 -15 -26 -173 -124 -300 -95 -123 -86 -123 51 -4 42 37 90 73
105 81 15 8 37 25 48 37 24 27 87 60 114 60 62 0 69 -111 12 -216 -69 -129
-322 -406 -509 -558 -64 -53 -142 -116 -172 -141 -30 -25 -77 -63 -105 -84
-27 -22 -97 -76 -155 -122 -59 -47 -230 -209 -392 -373 -159 -159 -300 -298
-315 -308 -34 -22 -53 -23 -53 -2 0 22 28 59 165 219 66 77 188 221 270 320
82 99 203 243 269 320 159 183 226 267 226 283 0 24 -42 -7 -125 -91 -45 -45
-126 -117 -180 -159 -55 -42 -162 -132 -237 -200 -319 -285 -468 -421 -468
-428 0 -10 -279 -267 -343 -316 -26 -20 -50 -35 -53 -32 -7 8 99 140 245 302
157 174 741 843 796 910 22 27 87 104 144 170 111 130 136 164 129 171 -3 3
-64 -48 -136 -114 -164 -150 -309 -266 -632 -507 -321 -240 -524 -400 -665
-524 -131 -116 -385 -376 -385 -395 0 -7 21 -21 48 -31 93 -34 112 -43 112
-53 0 -5 -4 -13 -10 -16 -17 -10 -11 -63 11 -107 30 -59 111 -133 180 -165 32
-16 61 -36 64 -45 3 -9 -1 -46 -10 -83 -24 -104 -21 -122 36 -210 57 -91 120
-219 145 -296 15 -46 16 -61 5 -118 -23 -120 -24 -129 -7 -153 9 -12 16 -35
16 -51 0 -36 30 -96 90 -177 62 -84 173 -190 198 -190 27 0 62 -46 62 -82 0
-40 20 -85 74 -163 57 -84 66 -116 66 -240 0 -140 -30 -235 -104 -334 -28 -37
-32 -51 -17 -51 20 0 73 68 109 139 l37 74 3 174 4 173 58 0 c32 0 77 -7 100
-15 58 -21 70 -19 67 8 -2 20 1 22 48 19 40 -2 47 0 37 10 -9 9 -66 15 -180
19 -92 4 -168 7 -169 8 -1 0 -9 14 -18 31 -27 51 -14 122 13 74 6 -12 17 -15
33 -11 13 3 43 10 67 16 34 9 70 7 178 -9 156 -23 167 -24 159 -10 -3 5 -15
10 -26 10 -21 0 -25 23 -10 63 7 18 22 26 68 36 83 19 110 36 134 84 31 61 59
89 76 76 7 -6 13 -18 13 -26 0 -37 102 -133 141 -133 19 0 125 62 173 103 24
20 31 34 37 86 4 40 14 70 27 84 11 12 23 40 27 62 9 54 72 188 84 181 5 -4
17 -40 26 -81 9 -41 26 -87 37 -101 22 -27 34 -28 111 -8 16 4 45 1 67 -6 34
-11 43 -11 64 4 58 38 79 143 53 262 -17 74 -13 118 18 204 45 128 117 189
143 123 6 -16 20 -77 32 -137 22 -112 33 -146 50 -146 6 0 10 11 10 24 0 35
14 40 105 41 l80 0 17 37 c10 20 29 45 43 55 14 10 44 33 66 51 23 17 47 32
55 32 27 0 46 48 51 132 3 59 10 91 24 110 10 15 19 34 19 41 0 20 29 42 40
31 4 -5 13 -35 19 -67 6 -31 22 -77 36 -101 14 -23 25 -53 25 -66 0 -13 12
-38 26 -57 16 -21 29 -56 35 -96 6 -34 16 -72 24 -84 8 -12 13 -42 12 -71 -2
-43 2 -54 35 -94 20 -25 53 -73 73 -107 39 -66 68 -87 108 -77 49 12 87 134
87 282 0 95 2 103 30 145 16 24 30 52 30 62 0 25 16 53 67 118 23 30 43 61 43
67 0 55 128 -113 168 -222 11 -28 30 -112 42 -186 38 -235 107 -371 213 -423
39 -19 66 -27 82 -23 14 4 49 37 81 76 31 39 58 70 61 70 3 0 18 -11 34 -25
16 -13 46 -27 67 -30 20 -3 46 -8 57 -10 11 -2 46 -27 79 -54 68 -58 106 -76
141 -67 18 5 27 15 32 37 4 22 9 27 17 19 15 -15 13 -375 -2 -412 -8 -19 -19
-28 -33 -28 -22 0 -22 0 -3 21 l19 21 -68 -7 c-47 -5 -76 -4 -91 5 -18 9 -33
9 -76 -4 -30 -9 -69 -16 -87 -16 -29 0 -36 5 -45 30 -6 18 -19 32 -33 36 -31
8 -45 -2 -45 -32 0 -14 -6 -24 -14 -24 -17 0 -38 24 -34 40 2 7 -2 14 -9 17
-7 3 -16 -10 -21 -29 -6 -26 -13 -33 -33 -33 -20 0 -24 4 -22 30 3 38 -12 46
-67 39 -69 -9 -82 -14 -76 -31 5 -12 -4 -14 -56 -9 -260 23 -1698 13 -2153
-14 -214 -14 -330 -47 -215 -63 22 -3 165 1 317 9 363 18 1113 29 1094 16 -19
-13 -130 -21 -446 -32 -265 -9 -326 -17 -373 -48 l-26 -17 49 -5 c46 -5 50 -7
53 -34 l4 -29 121 6 c67 3 136 10 154 16 28 8 34 6 59 -20 18 -19 38 -29 58
-29 116 0 252 -50 284 -105 15 -25 25 -32 41 -28 11 3 33 -3 50 -13 28 -16 32
-17 48 -2 32 29 213 36 213 8 0 -15 -34 -21 -174 -27 -157 -6 -246 5 -286 37
-69 55 -198 102 -223 82 -7 -6 -35 -16 -62 -23 -27 -7 -59 -23 -71 -36 l-22
-23 -6 34 c-4 23 -14 37 -27 41 -27 9 -36 -2 -21 -25 30 -49 -1 -53 -73 -10
-67 40 -128 40 -210 1 -63 -30 -98 -61 -109 -98 -11 -35 -66 -41 -66 -7 0 9
-11 14 -30 14 -19 0 -47 13 -75 35 -64 49 -112 60 -167 39 -134 -51 -177 -64
-213 -64 -51 0 -75 -14 -57 -32 21 -20 121 -12 207 18 93 32 148 29 182 -11
25 -29 23 -41 -19 -99 -15 -21 -28 -47 -28 -57 0 -28 -12 -29 -76 -11 -45 12
-102 16 -244 16 -176 0 -189 -1 -263 -27 -89 -31 -228 -98 -273 -133 -18 -13
-35 -35 -38 -50 -4 -15 -21 -47 -38 -71 -52 -77 -20 -60 68 35 66 71 99 98
147 121 72 33 189 65 302 81 235 35 516 -69 727 -269 90 -84 147 -162 209
-282 28 -55 55 -99 60 -99 20 0 7 61 -26 126 -78 155 -265 360 -399 438 -76
45 -118 88 -109 114 20 57 108 102 200 102 38 0 48 5 97 54 78 78 113 87 225
56 125 -34 183 -37 225 -11 103 64 270 33 250 -45 -7 -26 2 -29 97 -38 120
-10 243 -100 299 -218 26 -54 30 -75 30 -146 0 -96 8 -118 50 -127 41 -9 46
-23 13 -36 -17 -6 -68 -8 -140 -3 -121 7 -139 0 -76 -30 46 -22 120 -31 153
-18 35 13 92 -3 116 -34 27 -33 44 -24 44 22 0 38 16 50 53 40 24 -6 107 -66
107 -77 0 -4 -29 -9 -65 -11 -55 -3 -70 -8 -92 -31 -52 -51 18 -59 95 -10 22
13 26 13 45 -5 12 -11 40 -28 62 -37 22 -9 51 -27 65 -39 32 -30 71 -50 140
-69 108 -31 199 -114 236 -215 20 -54 41 -82 61 -82 8 0 24 -5 36 -11 l21 -12
-24 -10 c-69 -27 -1116 -16 -1170 13 -13 7 -27 5 -51 -8 -31 -15 -80 -17 -534
-17 -275 0 -508 3 -518 7 -14 6 -16 12 -7 28 14 26 140 120 210 156 l55 29
230 0 c268 0 289 -4 451 -91 56 -30 109 -54 118 -54 28 0 14 33 -18 41 -34 9
-66 37 -66 57 0 12 10 13 52 8 57 -8 82 -22 74 -42 -7 -20 8 -25 40 -15 16 5
65 13 109 17 l80 7 -40 13 c-22 7 -62 13 -88 13 -26 1 -64 10 -85 20 -136 69
-644 118 -806 78 -157 -39 -298 -129 -363 -232 l-27 -43 -350 5 c-193 2 -432
9 -531 15 -99 6 -207 12 -240 13 -33 2 -66 3 -72 4 -7 0 -38 24 -68 51 -58 52
-102 67 -90 30 3 -11 4 -20 2 -20 -2 0 -35 25 -73 55 -53 42 -81 57 -124 65
-30 6 -63 14 -72 16 -10 3 -25 30 -38 69 -12 36 -26 68 -32 71 -6 4 -45 -30
-87 -75 -42 -45 -82 -81 -90 -81 -7 0 -38 23 -69 51 -55 50 -57 51 -104 45
l-48 -7 0 43 c0 24 9 97 19 163 10 66 16 125 14 132 -3 7 -18 13 -34 13 -35 0
-47 -20 -60 -103 -6 -34 -19 -80 -29 -102 -27 -54 -117 -154 -191 -209 -68
-52 -103 -57 -175 -30 -38 14 -44 14 -72 0 -44 -23 -52 -20 -52 14 0 52 -80
112 -152 114 -21 0 -40 6 -43 13 -2 7 0 57 5 111 12 121 12 143 1 161 -14 21
-35 1 -72 -69 -21 -39 -42 -64 -68 -78 -27 -15 -48 -40 -70 -82 -18 -33 -41
-64 -51 -70 -32 -17 -151 -12 -195 9 -50 23 -78 53 -107 116 -20 44 -23 66
-23 175 0 111 2 128 21 155 12 17 24 50 28 75 4 25 18 62 31 82 31 46 32 68 4
68 -37 0 -89 -40 -106 -81 -14 -36 -128 -144 -244 -232 -43 -32 -138 -47 -311
-47 l-107 0 -87 98 c-129 145 -128 141 -134 422 -5 203 -8 240 -25 275 -28 58
-29 328 -1 395 10 25 27 97 37 161 17 107 53 245 113 429 13 41 22 78 19 82
-6 11 -41 10 -64 -3 -12 -6 -53 -78 -99 -175 -43 -90 -84 -164 -89 -164 -6 0
-22 -24 -36 -53 -13 -28 -34 -68 -46 -87 -25 -40 -21 -90 8 -90 19 0 32 16 81
100 35 61 37 63 40 36 5 -42 -16 -153 -40 -208 -22 -50 -45 -66 -34 -23 4 14
3 25 -2 25 -15 0 -68 -44 -120 -100 -29 -31 -51 -48 -52 -40 0 17 20 49 73
112 59 71 47 90 -26 39 -23 -16 -80 -62 -127 -101 -47 -39 -125 -98 -174 -132
-48 -33 -116 -85 -149 -115 -75 -67 -136 -104 -188 -113 -83 -15 -196 23 -327
110 -65 43 -82 73 -82 141 0 20 -5 39 -11 41 -6 2 0 34 16 86 25 78 25 85 10
108 -13 21 -14 27 -1 47 7 12 17 41 20 65 4 24 18 65 31 92 35 69 41 121 19
159 -17 29 -17 33 9 144 52 221 29 266 -58 115 -74 -128 -239 -288 -298 -288
-10 0 -49 -14 -87 -30 -81 -36 -99 -36 -249 -9 -189 33 -187 33 -236 119 -31
55 -51 78 -74 87 -17 7 -31 19 -31 26 0 6 -20 37 -45 67 -25 30 -48 66 -52 79
-7 30 1 339 22 798 20 437 17 419 69 468 42 40 338 248 431 302 66 39 99 50
61 20 -53 -39 -106 -89 -106 -98 0 -25 53 2 226 114 377 245 384 250 366 261
-16 10 -265 -132 -367 -210 -25 -18 -45 -31 -45 -28 0 21 31 51 91 90 38 25
73 53 78 62 5 10 42 35 83 55 89 46 211 134 203 147 -12 19 -57 11 -62 -10 -4
-16 -8 -18 -19 -9 -10 8 -22 8 -44 1 -49 -17 -120 -71 -120 -91 0 -14 -10 -20
-41 -24 -46 -6 -121 -50 -389 -225 -210 -137 -399 -272 -457 -326 -32 -28 -43
-46 -43 -68 0 -16 -7 -43 -16 -60 -9 -18 -34 -79 -55 -137 -22 -58 -45 -110
-53 -116 -7 -5 -21 -26 -31 -45 -34 -68 -215 -277 -278 -322 -23 -17 -51 -22
-132 -28 -101 -6 -104 -7 -144 -43 -23 -20 -49 -37 -59 -37 -22 0 -42 19 -42
39 0 8 -14 26 -31 40 -23 19 -35 44 -50 96 -29 106 -26 170 14 247 30 59 37
66 106 100 120 62 239 150 451 333 47 41 145 123 219 182 74 59 136 114 139
121 8 25 -22 10 -91 -46 -40 -32 -110 -89 -157 -125 -47 -37 -112 -90 -145
-118 -94 -79 -396 -304 -440 -328 -45 -24 -75 -27 -93 -9 -28 28 -9 378 28
534 23 93 26 207 7 244 -22 45 -66 35 -67 -14 0 -47 -97 -132 -177 -156 -57
-17 -107 -6 -153 36 -56 51 -78 119 -89 267 -10 139 -21 173 -81 242 -50 58
-70 100 -70 151 0 29 3 35 16 30 15 -6 16 4 10 102 -4 60 -16 144 -26 188 -11
44 -23 138 -26 211 -6 118 -5 133 10 139 26 10 66 -5 98 -37 34 -33 58 -38 58
-10 0 22 -55 73 -110 101 -22 11 -45 30 -51 42 -14 26 -6 228 10 271 19 49 39
183 61 412 14 149 27 231 38 255 17 35 17 35 90 38 70 3 76 1 132 -35 32 -21
87 -54 121 -73 45 -25 70 -48 91 -82 16 -26 56 -66 93 -94 36 -26 65 -50 65
-53 0 -3 7 -15 16 -26 14 -19 18 -16 92 62 96 100 119 108 213 68 131 -55 119
-52 139 -28 16 20 19 21 31 7 7 -9 32 -25 56 -36 24 -11 65 -40 92 -64 l49
-44 -10 40 c-6 23 -8 43 -5 46 11 12 75 6 105 -10 43 -22 125 -106 146 -149
10 -22 14 -46 10 -62 -3 -14 -2 -25 4 -25 11 0 322 222 477 340 235 179 508
363 695 467 63 36 124 73 135 83 11 10 34 22 50 26 17 4 61 22 100 41 38 18
74 33 80 33 6 0 29 -18 50 -40z m5883 -7 c-2 -10 -11 -19 -21 -21 -16 -3 -17
-1 -7 17 13 25 33 28 28 4z m-5278 -49 c11 -12 11 -18 -2 -31 -19 -18 -38 -10
-38 16 0 33 20 40 40 15z m-2250 -13 c0 -12 -29 -35 -36 -28 -11 10 5 37 21
37 8 0 15 -4 15 -9z m2345 -7 c19 -19 15 -38 -8 -42 -17 -4 -41 33 -32 48 9
14 21 12 40 -6z m5215 -99 c10 -12 10 -21 2 -40 -14 -30 -28 -32 -42 -5 -8 14
-8 26 0 40 13 24 23 25 40 5z m-5165 -49 c76 -32 165 -129 165 -180 0 -12 10
-39 22 -61 18 -34 22 -57 22 -147 1 -67 -3 -111 -10 -118 -16 -16 -64 -26
-353 -71 -150 -23 -272 -47 -298 -59 -24 -10 -79 -22 -121 -25 -133 -11 -243
-51 -317 -116 -48 -43 -47 -76 5 -122 58 -53 116 -80 157 -74 29 5 33 3 28
-12 -4 -13 5 -25 33 -45 21 -14 51 -40 67 -56 16 -17 37 -30 46 -30 19 0 49
-36 49 -59 0 -22 -31 -51 -55 -51 -12 0 -69 -24 -127 -54 -57 -30 -136 -66
-174 -81 -38 -16 -154 -70 -258 -122 -183 -92 -243 -110 -200 -61 11 11 46 39
79 60 77 50 490 258 513 258 10 0 36 18 57 41 l40 40 -27 24 c-15 13 -86 56
-158 95 -147 82 -171 106 -178 185 -4 49 -2 54 32 87 78 76 206 128 395 159
69 12 170 37 226 56 86 29 120 36 241 43 77 5 152 13 166 19 70 26 94 119 58
221 -49 141 -97 185 -225 210 -82 16 -95 20 -95 31 0 29 137 39 195 15z
m-1865 -46 c0 -11 -7 -20 -15 -20 -15 0 -21 21 -8 33 12 13 23 7 23 -13z
m7330 -28 c0 -24 -28 -62 -46 -62 -21 0 -17 47 6 70 23 23 40 19 40 -8z m210
4 c6 -8 10 -25 8 -38 -2 -19 -10 -24 -40 -26 -31 -3 -38 0 -38 14 0 17 37 64
51 64 3 0 12 -7 19 -14z m-410 -22 c0 -8 -2 -14 -4 -14 -2 0 -11 -3 -20 -6
-19 -7 -22 16 -4 34 13 13 28 7 28 -14z m258 -94 c4 -26 -20 -50 -50 -50 -29
0 -33 28 -7 56 28 30 53 28 57 -6z m326 -6 c8 -21 -15 -64 -35 -64 -31 0 -41
62 -12 78 20 12 39 6 47 -14z m-9989 -191 c0 -119 3 -165 13 -175 11 -10 15
-10 23 2 7 11 9 2 7 -29 -3 -40 -7 -48 -48 -76 -40 -28 -46 -37 -52 -81 -29
-208 -47 -316 -98 -579 -48 -249 -67 -323 -108 -435 -57 -153 -72 -208 -101
-366 -29 -155 -56 -227 -97 -267 -34 -31 -35 -33 -28 -93 l6 -61 -63 -72 c-79
-90 -109 -137 -109 -176 0 -35 -8 -49 -32 -58 -34 -12 -48 3 -48 49 0 24 -9
76 -19 116 -11 40 -22 90 -25 110 -4 20 -15 47 -26 60 -19 22 -21 22 -34 5 -7
-9 -16 -40 -19 -67 -3 -28 -25 -97 -48 -153 -23 -56 -53 -131 -66 -167 -29
-76 -87 -161 -174 -250 l-62 -65 -10 60 c-6 34 -10 342 -11 710 -1 673 0 695
39 695 8 0 21 -10 29 -21 16 -23 46 -20 46 5 0 9 -22 22 -58 33 l-57 18 1 320
c0 348 5 387 54 413 32 17 161 10 213 -12 36 -16 37 -16 37 4 0 37 -54 55
-160 53 -52 -1 -106 -3 -120 -5 l-25 -3 0 90 c0 103 16 154 49 156 54 4 96 -5
153 -32 49 -23 75 -29 127 -29 68 0 70 -1 114 -55 13 -15 15 -15 32 0 10 9 21
27 24 40 12 47 65 54 87 13 8 -15 7 -24 -5 -37 -38 -42 -61 -141 -32 -141 16
0 48 71 71 159 39 152 75 213 113 192 17 -9 27 -2 72 50 34 39 72 70 111 89
60 31 79 52 79 90 0 32 37 79 89 112 38 24 55 28 96 26 l50 -3 0 -162z m10155
146 c0 -25 -33 -22 -38 4 -2 12 3 17 17 17 15 0 21 -6 21 -21z m-377 -5 c9
-10 -10 -42 -33 -54 -28 -15 -33 4 -9 34 21 26 31 31 42 20z m67 -80 c0 -31
-23 -28 -28 4 -2 15 2 22 12 22 11 0 16 -9 16 -26z m417 0 c5 -15 -11 -33 -30
-34 -15 0 -20 32 -6 41 20 13 29 11 36 -7z m-547 -54 c0 -13 -7 -20 -20 -20
-13 0 -20 7 -20 20 0 13 7 20 20 20 13 0 20 -7 20 -20z m-10040 -20 c0 -5 -12
-17 -27 -27 -16 -10 -52 -37 -82 -61 -30 -24 -66 -49 -80 -55 -14 -6 -47 -31
-73 -56 l-48 -45 0 37 c0 74 65 158 154 198 44 20 156 26 156 9z m10380 -10
c0 -11 -10 -30 -22 -42 l-23 -23 -3 28 c-4 31 12 57 34 57 8 0 14 -9 14 -20z
m337 -27 c7 -18 -41 -67 -61 -60 -16 5 -20 45 -6 63 17 19 59 18 67 -3z m-549
-43 c3 -21 2 -22 -12 -11 -19 16 -21 44 -3 39 6 -3 14 -15 15 -28z m379 14 c8
-21 -13 -42 -28 -27 -13 13 -5 43 11 43 6 0 13 -7 17 -16z m-287 -28 c0 -16
-18 -31 -27 -22 -8 8 5 36 17 36 5 0 10 -6 10 -14z m463 -90 c9 -22 -18 -40
-33 -22 -6 9 -9 20 -5 26 9 15 32 12 38 -4z m-274 -20 c9 -10 7 -19 -8 -37
-16 -20 -21 -21 -35 -10 -20 17 -20 25 0 45 19 20 28 20 43 2z m-5769 -6 c16
-9 17 -15 6 -62 -8 -40 -16 -54 -31 -56 -47 -9 -196 -90 -264 -144 -40 -32
-94 -69 -120 -83 -26 -13 -53 -30 -60 -39 -17 -20 -17 -20 -311 76 -271 89
-311 106 -289 118 28 16 215 59 514 119 356 72 515 92 555 71z m5910 -2 c0
-16 -31 -48 -47 -48 -18 0 -16 20 4 42 18 20 43 24 43 6z m105 -155 c-14 -61
-75 -84 -75 -29 0 27 33 56 63 56 16 0 18 -5 12 -27z m-149 -5 c4 -6 -3 -19
-16 -30 -21 -17 -25 -17 -38 -4 -13 12 -13 18 -2 30 15 19 46 21 56 4z
m-10116 -22 c0 -7 -7 -19 -15 -26 -12 -10 -15 -9 -15 7 0 11 3 23 7 26 11 12
23 8 23 -7z m4193 0 c9 -24 -10 -74 -48 -127 -20 -28 -40 -62 -45 -75 -5 -13
-21 -29 -35 -34 -32 -12 -242 -13 -249 -2 -3 5 50 43 118 85 67 43 146 97 175
122 55 47 75 54 84 31z m2574 -105 c13 -11 31 -17 40 -14 30 12 4 -14 -31 -31
-51 -24 -76 -21 -76 8 0 22 23 56 37 56 3 0 16 -9 30 -19z m3523 -1 c0 -22
-20 -26 -38 -8 -19 19 -14 28 13 28 18 0 25 -5 25 -20z m110 1 c0 -40 -61 -56
-68 -18 -2 10 5 21 20 26 36 15 48 13 48 -8z m-150 -63 c0 -20 -32 -48 -57
-48 -27 0 -30 16 -6 42 18 20 63 25 63 6z m-1683 -55 c15 -10 55 -19 96 -22
43 -4 72 -11 75 -18 2 -9 -9 -13 -38 -13 -29 0 -60 -10 -96 -31 -30 -17 -58
-28 -63 -25 -5 4 -14 29 -20 57 -16 71 -4 85 46 52z m1809 -38 c4 -8 1 -22 -6
-30 -18 -21 -50 -19 -50 3 0 36 45 57 56 27z m-1495 -41 l82 -26 -32 -19 c-18
-11 -46 -35 -62 -54 -35 -39 -79 -48 -79 -16 0 10 -3 46 -6 80 -5 41 -3 61 4
61 6 0 48 -12 93 -26z m-4901 7 c0 -14 -27 -21 -76 -21 -46 0 -60 15 -21 23
42 8 97 7 97 -2z m6575 -21 c0 -9 -11 -16 -27 -18 -30 -4 -36 6 -16 26 16 16
43 11 43 -8z m-6735 -10 c0 -8 -89 -40 -112 -40 -21 0 -4 19 30 33 42 18 82
22 82 7z m357 -6 c10 -27 -14 -40 -37 -19 -11 10 -17 22 -14 26 9 15 44 10 51
-7z m6503 -9 c19 -23 4 -47 -27 -43 -31 3 -44 35 -21 49 19 13 34 11 48 -6z
m-1487 -36 c49 -11 137 -35 195 -53 59 -19 125 -38 147 -44 22 -6 60 -17 85
-25 25 -9 117 -36 205 -60 156 -44 315 -98 345 -117 30 -19 -2 -22 -72 -8 -40
9 -120 25 -178 37 -262 53 -404 94 -421 123 -4 6 -13 5 -27 -3 -18 -11 -41 -9
-149 15 -186 41 -229 59 -253 107 -11 21 -27 39 -35 39 -8 0 -15 5 -15 10 0
12 46 6 173 -21z m-4844 -39 c54 -34 107 -87 98 -96 -7 -8 -49 23 -117 84 -53
49 -45 54 19 12z m6186 -20 c0 -18 -43 -26 -57 -12 -16 16 2 33 30 30 16 -2
27 -9 27 -18z m86 -40 c24 -14 25 -30 0 -30 -21 0 -45 23 -34 33 8 9 11 9 34
-3z m117 -28 c2 -7 -4 -15 -13 -18 -20 -8 -27 -1 -19 20 7 18 25 17 32 -2z
m-10781 -29 c-3 -10 -5 -4 -5 12 0 17 2 24 5 18 2 -7 2 -21 0 -30z m10663 -63
c9 -17 6 -25 -14 -45 -14 -14 -34 -25 -44 -25 -25 0 -46 25 -36 42 28 50 75
64 94 28z m137 -66 c8 -21 -13 -42 -28 -27 -13 13 -5 43 11 43 6 0 13 -7 17
-16z m-10772 -34 c0 -8 -8 -16 -17 -18 -13 -2 -18 3 -18 18 0 15 5 20 18 18 9
-2 17 -10 17 -18z m4618 -57 c54 -107 62 -148 62 -313 0 -177 -15 -241 -84
-347 -31 -49 -111 -127 -111 -109 0 8 60 106 87 142 51 69 88 349 63 492 -6
40 -23 94 -36 120 -26 52 -29 62 -14 62 5 0 20 -21 33 -47z m6071 15 c8 -14 5
-23 -16 -45 -14 -15 -29 -42 -33 -60 -7 -35 -30 -49 -51 -32 -18 15 -18 24 2
44 9 9 21 35 26 58 13 58 47 75 72 35z m-1206 -29 c-4 -29 -33 -48 -49 -32
-18 18 -1 53 27 53 20 0 25 -4 22 -21z m-9473 -107 c7 -63 -9 -172 -26 -172
-17 0 -21 49 -10 156 6 59 11 112 12 118 2 22 17 -44 24 -102z m9755 43 c25
-30 -17 -75 -70 -75 -31 0 -45 36 -25 66 18 28 75 34 95 9z m-525 -51 c20 -21
15 -38 -13 -42 -24 -4 -38 18 -28 43 7 19 21 19 41 -1z m1532 -21 c2 -6 -5
-21 -17 -33 -16 -16 -24 -18 -40 -10 -11 6 -20 17 -20 25 0 30 68 46 77 18z
m81 -15 c8 -8 9 -15 1 -25 -15 -17 -34 -16 -50 3 -10 13 -10 17 2 25 19 12 33
11 47 -3z m-5813 -27 c-15 -14 -55 -23 -55 -13 0 15 12 22 39 22 15 0 21 -4
16 -9z m4963 -28 c5 -17 -26 -29 -40 -15 -6 6 -7 15 -3 22 9 14 37 9 43 -7z
m350 -7 c5 -26 -16 -45 -28 -26 -5 8 -10 23 -10 33 0 24 34 18 38 -7z m-889
-10 c9 -10 8 -16 -3 -25 -18 -15 -56 -5 -56 14 0 24 41 32 59 11z m391 -11
c21 -25 4 -47 -32 -43 -28 2 -34 8 -36 31 -3 24 0 27 26 27 16 0 35 -7 42 -15z
m650 -8 c0 -28 -17 -47 -42 -47 -23 0 -23 27 -1 52 22 25 43 23 43 -5z m-265
-37 c0 -8 -8 -16 -17 -18 -13 -2 -18 3 -18 18 0 15 5 20 18 18 9 -2 17 -10 17
-18z m485 -14 c0 -27 -18 -46 -42 -46 -25 0 -23 35 2 60 24 24 40 18 40 -14z
m245 -6 c9 -28 -11 -50 -46 -50 -35 0 -37 13 -4 45 29 30 42 31 50 5z m-1615
-34 c0 -16 -37 -46 -57 -46 -18 0 -16 20 4 42 19 22 53 24 53 4z m-9338 -80
c16 -43 27 -81 24 -83 -7 -7 -63 57 -92 104 -29 47 -25 66 14 61 22 -3 29 -13
54 -82z m5149 60 c-26 -28 -78 -52 -89 -42 -8 9 21 33 63 52 44 20 51 17 26
-10z m5385 -21 c4 -8 1 -22 -6 -30 -18 -21 -50 -19 -50 3 0 36 45 57 56 27z
m268 -51 c9 -3 16 -12 16 -19 0 -19 -37 -47 -57 -43 -24 5 -29 39 -7 55 20 15
26 16 48 7z m231 -46 c14 -21 14 -24 -2 -36 -20 -14 -60 -8 -81 12 -11 11 -11
16 3 30 23 23 61 20 80 -6z m-381 -46 c-12 -18 -64 -30 -64 -13 0 18 53 52 64
41 7 -7 7 -16 0 -28z m-10580 -65 c16 -23 43 -61 59 -83 24 -35 27 -45 18 -63
-14 -25 -31 -28 -31 -5 0 22 -37 81 -55 88 -8 3 -30 -4 -49 -15 -43 -25 -55
-10 -26 31 11 16 26 43 31 60 6 16 14 30 17 30 4 -1 20 -20 36 -43z m-176 -55
c2 -12 -1 -22 -7 -22 -13 0 -32 35 -24 44 12 12 28 0 31 -22z m11182 -12 c0
-5 -9 -10 -20 -10 -11 0 -20 5 -20 10 0 6 9 10 20 10 11 0 20 -4 20 -10z m180
-9 c0 -21 -39 -53 -77 -65 -20 -6 -23 -4 -23 18 0 35 33 66 70 66 23 0 30 -5
30 -19z m-11133 -165 c10 -13 27 -43 37 -67 55 -130 78 -172 118 -215 45 -49
90 -74 132 -74 14 0 28 -5 31 -10 9 -15 -14 -40 -36 -40 -10 0 -21 -9 -24 -20
-9 -29 -34 -25 -41 8 -14 54 -46 56 -73 5 -26 -50 -87 -120 -96 -111 -4 4 5
28 20 53 33 58 29 77 -29 141 l-44 49 -30 -22 c-25 -19 -32 -20 -42 -8 -6 7
-10 29 -8 47 3 30 6 33 40 36 46 4 61 27 53 80 -11 67 -25 92 -51 92 -21 0
-24 5 -24 34 0 50 36 62 67 22z m-714 -298 c6 -18 -10 -59 -33 -83 -10 -11
-23 -40 -30 -64 -15 -56 -45 -104 -103 -164 -51 -52 -62 -56 -70 -28 -2 11
-23 29 -46 40 -22 12 -41 23 -41 25 0 2 18 2 40 -1 48 -7 118 17 147 50 11 12
26 45 32 72 7 28 26 76 43 108 30 55 51 71 61 45z m1222 -10 c-3 -13 -12 -48
-19 -78 -14 -66 -35 -72 -54 -15 -20 61 -13 86 28 101 49 18 53 17 45 -8z
m-1535 -109 c12 -45 6 -66 -16 -48 -17 14 -37 85 -29 100 11 17 34 -10 45 -52z
m2674 -30 c-23 -26 -74 -53 -74 -40 0 13 62 61 79 61 11 0 9 -5 -5 -21z
m-1197 -55 c8 -22 -14 -185 -27 -198 -7 -7 -10 0 -10 23 0 25 -4 32 -17 29
-23 -3 -43 9 -43 27 0 8 13 29 28 47 16 18 32 45 36 61 7 30 23 36 33 11z
m-217 -31 c0 -20 -3 -24 -11 -16 -7 7 -9 19 -6 27 10 24 17 19 17 -11z m-1412
-140 c-3 -30 -25 -42 -34 -19 -6 17 11 46 28 46 5 0 8 -12 6 -27z m1313 -81
c44 -29 79 -76 65 -89 -4 -4 -15 2 -24 15 -12 15 -26 22 -42 20 -19 -2 -26 2
-28 20 -2 12 -12 27 -23 32 -22 12 -25 30 -6 30 7 0 33 -13 58 -28z m-1381 -5
c0 -17 -58 -73 -66 -64 -8 8 43 77 57 77 5 0 9 -6 9 -13z m2691 -30 c-8 -8
-11 -3 -11 19 1 25 2 27 11 11 8 -14 8 -22 0 -30z m-996 -57 c11 -21 15 -61
15 -147 0 -133 26 -280 63 -353 29 -58 100 -104 166 -106 l46 -2 3 -46 c3 -49
-6 -58 -26 -26 -35 57 -103 40 -122 -30 -13 -50 -26 -57 -54 -31 -16 15 -33
20 -62 18 -50 -3 -53 21 -4 37 51 16 53 59 6 151 -20 38 -40 94 -45 123 -4 29
-13 58 -20 65 -6 6 -11 42 -11 81 0 68 -1 70 -41 108 -27 26 -48 38 -63 36
-29 -4 -54 -60 -62 -137 -10 -91 -24 -85 -24 12 0 105 16 133 118 200 40 27
76 55 79 63 8 22 21 17 38 -16z m-1815 -39 c0 -6 -5 -13 -10 -16 -6 -4 -26
-30 -45 -58 l-35 -52 0 56 c0 30 5 60 12 67 14 14 78 16 78 3z m2770 -59 c0
-9 -8 -22 -19 -29 -10 -6 -22 -28 -25 -48 -4 -19 -11 -33 -17 -30 -15 10 -10
58 11 93 21 34 50 43 50 14z m55 -112 c8 -13 -4 -50 -16 -50 -5 0 -9 14 -9 30
0 30 13 40 25 20z m-208 -138 c-10 -39 -14 -42 -36 -37 -23 6 -23 4 -18 -30 5
-31 4 -35 -8 -25 -24 20 -17 45 26 94 23 26 43 46 44 44 2 -2 -2 -22 -8 -46z
m-915 -35 c-3 -34 3 -62 22 -103 34 -73 32 -87 -5 -44 -29 35 -69 125 -69 158
0 23 20 43 40 40 11 -3 14 -15 12 -51z m8543 -172 c8 -67 -8 -128 -33 -123
-13 3 -17 15 -16 54 2 55 20 124 34 124 4 0 11 -25 15 -55z m-7814 24 c38 -27
29 -39 -29 -39 -68 0 -91 -9 -108 -41 -18 -36 -32 -37 -44 -3 -14 37 3 62 48
70 20 4 48 13 62 20 33 18 37 17 71 -7z m-233 -26 c-10 -2 -26 -2 -35 0 -10 3
-2 5 17 5 19 0 27 -2 18 -5z m596 -120 c-5 -27 -9 -31 -20 -22 -17 14 -18 40
-2 74 12 27 12 27 20 4 5 -12 6 -37 2 -56z m-1029 -19 c-17 -26 -61 -51 -71
-41 -8 8 19 51 55 90 l26 29 3 -27 c2 -14 -4 -37 -13 -51z m1022 -227 c16
-117 48 -175 135 -245 36 -30 74 -71 83 -91 10 -20 24 -49 31 -64 18 -38 18
-54 -3 -66 -24 -13 -46 1 -74 45 -20 33 -21 37 -6 46 26 14 20 35 -11 41 -34
7 -127 87 -147 128 -8 15 -19 58 -24 94 -6 37 -16 74 -25 84 -34 38 -26 126
11 119 13 -2 20 -23 30 -91z m7199 -143 c17 -2 41 -15 54 -29 l22 -24 -21 -44
c-11 -24 -21 -62 -21 -84 0 -34 -18 -73 -35 -73 -2 0 -22 16 -46 35 -46 39
-72 42 -77 7 -2 -12 -8 -22 -13 -22 -28 0 -78 145 -66 191 4 13 19 32 34 41
27 18 67 18 169 2z m-353 -123 c-3 -53 -31 -147 -49 -162 -7 -6 -25 -41 -39
-79 -29 -77 -69 -132 -121 -169 l-36 -25 -16 21 c-9 11 -29 23 -43 27 -14 3
-31 17 -37 31 -27 58 -6 129 62 212 19 23 42 67 50 98 10 32 24 59 36 65 32
17 93 29 145 27 l50 -2 -2 -44z m-5724 -81 c13 -94 -11 -126 -57 -77 -22 23
-46 77 -38 85 3 2 20 7 38 11 29 6 33 11 30 37 -7 59 18 8 27 -56z m-1144 -31
c0 -34 -37 -33 -45 1 -4 14 -5 31 -2 38 7 21 47 -12 47 -39z m139 -65 c6 -17
-9 -54 -23 -54 -17 0 -32 30 -26 50 8 24 40 27 49 4z m386 -69 c28 -21 45 -25
102 -25 50 0 70 -4 74 -14 9 -23 -14 -54 -44 -61 -16 -3 -46 -24 -67 -45 -40
-41 -55 -43 -55 -8 0 25 -37 68 -58 68 -8 0 -27 -8 -44 -17 -29 -18 -30 -18
-49 6 -26 31 -24 54 7 90 33 40 85 42 134 6z m-420 -24 c0 -26 -10 -51 -21
-51 -10 0 -12 53 -2 63 12 13 23 7 23 -12z m6225 -123 c-11 -37 -39 -59 -86
-69 -24 -6 -62 -22 -83 -37 -36 -25 -49 -27 -154 -31 -103 -3 -114 -2 -110 14
1 9 20 23 41 30 20 7 53 25 72 39 82 63 162 81 216 49 28 -17 29 -16 49 5 12
12 30 22 41 22 16 0 19 -4 14 -22z m-5268 -204 c8 -21 -13 -42 -28 -27 -13 13
-5 43 11 43 6 0 13 -7 17 -16z m-287 -65 c0 -38 -24 -35 -28 4 -2 19 1 27 12
27 11 0 16 -10 16 -31z m1538 -20 c15 -29 12 -121 -4 -126 -17 -5 -34 51 -34
109 0 54 15 61 38 17z m-248 -37 c0 -20 -95 -142 -111 -142 -10 0 -20 76 -13
95 12 30 124 74 124 47z m6347 -18 c7 -19 -30 -59 -46 -50 -15 9 -14 39 1 54
17 17 37 15 45 -4z m-219 -1 c-10 -2 -26 -2 -35 0 -10 3 -2 5 17 5 19 0 27 -2
18 -5z m702 -12 c69 -5 193 -13 275 -17 152 -7 205 -16 149 -27 -97 -19 -600
-15 -620 5 -3 4 -3 19 0 34 6 23 10 25 39 20 18 -3 89 -10 157 -15z m-7826
-60 c9 -10 18 -31 19 -47 2 -25 -1 -29 -22 -26 -13 1 -37 13 -53 27 -19 16
-42 25 -64 25 -19 0 -34 5 -34 10 0 32 127 41 154 11z m814 -33 c5 -24 -10
-23 -39 2 l-24 20 30 -2 c19 -2 31 -9 33 -20z m-103 -74 c-35 -45 -73 -70 -86
-57 -17 17 5 47 58 82 55 37 67 26 28 -25z m-495 16 c0 -5 -11 -10 -25 -10
-14 0 -25 5 -25 10 0 6 11 10 25 10 14 0 25 -4 25 -10z m1070 -80 c19 -38 20
-51 14 -230 -4 -105 -11 -190 -15 -190 -17 0 -37 57 -44 123 -7 71 -8 72 -69
91 -29 10 0 36 40 36 47 0 76 33 72 84 -4 53 -29 68 -61 38 -44 -42 -50 -21
-12 45 14 23 32 43 40 43 8 0 24 -18 35 -40z m6044 10 c-12 -12 -145 -25 -178
-16 -54 13 -12 26 87 26 65 0 98 -3 91 -10z m-7035 -46 c32 -26 39 -48 21 -59
-24 -15 -89 52 -75 75 10 15 21 12 54 -16z m-111 -6 c9 -9 8 -16 -5 -30 -20
-22 -46 -23 -63 -3 -26 32 38 63 68 33z m-113 -23 c0 -13 -8 -21 -24 -23 -28
-4 -46 11 -37 33 9 25 61 16 61 -10z m475 0 c0 -15 -6 -25 -14 -25 -19 0 -28
14 -20 34 10 25 34 19 34 -9z m-580 3 c0 -14 -30 -48 -42 -48 -15 0 -8 39 10
49 23 14 32 13 32 -1z m489 -21 c8 -11 6 -18 -9 -32 -33 -30 -69 2 -38 33 16
16 33 15 47 -1z m6681 -132 c23 -8 64 -15 90 -15 62 0 110 -10 110 -23 0 -13
-204 -3 -242 12 -29 11 -39 41 -14 41 7 0 33 -7 56 -15z m-10430 -104 c0 -12
-29 -35 -36 -28 -11 10 5 37 21 37 8 0 15 -4 15 -9z m10830 -1 c0 -5 -9 -10
-20 -10 -11 0 -20 5 -20 10 0 6 9 10 20 10 11 0 20 -4 20 -10z m-7436 -69 c7
-10 -22 -37 -30 -28 -9 8 3 37 15 37 5 0 12 -4 15 -9z m1266 -186 c25 -44 54
-93 64 -108 22 -32 12 -68 -24 -87 -23 -12 -25 -10 -34 60 -9 62 -50 143 -91
179 -35 31 -31 42 15 38 20 -2 34 -18 70 -82z m5920 -56 c13 -24 13 -29 -4
-29 -17 0 -48 39 -40 51 7 12 33 -1 44 -22z m708 -109 c27 -19 42 -38 42 -51
0 -21 -2 -22 -72 -13 -40 5 -101 8 -135 7 -35 -1 -63 2 -63 6 0 25 108 80 161
81 14 0 45 -14 67 -30z m-5790 -7 c-3 -30 -25 -42 -34 -19 -9 22 2 46 21 46
12 0 15 -8 13 -27z m5502 -28 c16 -18 24 -36 23 -60 -1 -19 1 -35 4 -35 3 0
28 7 57 15 46 14 61 14 128 1 80 -15 122 -33 175 -72 38 -28 63 -33 42 -7 -8
9 -35 33 -61 54 l-48 37 45 18 c39 14 53 15 107 4 136 -26 193 -62 240 -149
l17 -31 38 26 c36 24 43 26 117 20 88 -7 139 -25 155 -54 6 -11 11 -93 11
-188 l2 -169 -234 -3 c-297 -3 -345 3 -404 57 -24 23 -49 41 -57 41 -7 0 -30
30 -51 67 -21 37 -59 88 -83 115 -42 45 -148 108 -181 108 -50 0 -231 133
-220 162 8 19 104 68 133 68 12 0 32 -11 45 -25z m-5687 0 c-10 -27 -63 -47
-140 -52 -67 -5 -76 -9 -94 -34 -14 -20 -29 -29 -47 -29 -15 0 -44 -5 -65 -11
-47 -13 -53 -8 -37 30 21 51 38 58 172 74 70 9 136 20 145 26 10 6 30 11 45
11 21 0 26 -4 21 -15z m-424 -55 c25 0 33 -11 20 -27 -16 -18 -74 -17 -93 3
-16 15 -22 55 -10 67 4 4 20 -5 36 -18 16 -14 37 -25 47 -25z m1207 -204 c3
-19 3 -45 -1 -57 l-8 -23 -18 23 c-21 26 -24 53 -8 82 13 26 27 16 35 -25z
m-3798 -29 c2 -12 -3 -17 -17 -17 -15 0 -21 6 -21 21 0 25 33 22 38 -4z m4562
-45 c-7 -13 -9 -8 -9 23 0 35 1 37 10 17 6 -15 5 -30 -1 -40z m-5140 33 c16
-19 3 -40 -16 -24 -15 13 -19 39 -5 39 5 0 14 -7 21 -15z m1370 -24 c0 -12
-29 -35 -36 -28 -11 10 5 37 21 37 8 0 15 -4 15 -9z m3698 -8 c-5 -25 -28 -28
-28 -4 0 12 6 21 16 21 9 0 14 -7 12 -17z m-534 -34 c45 -53 27 -83 -19 -33
-25 27 -34 64 -16 64 5 0 21 -14 35 -31z m1045 -28 c12 -22 5 -31 -26 -31 -25
0 -30 19 -11 38 17 17 26 15 37 -7z m206 -72 c-7 -10 -38 -12 -48 -2 -4 3 -2
12 4 19 13 16 54 0 44 -17z"/>
<path d="M10298 8367 c-35 -29 -101 -78 -148 -109 -47 -31 -129 -96 -182 -145
-128 -116 -155 -136 -208 -160 -25 -12 -75 -47 -113 -79 -66 -58 -287 -301
-287 -316 0 -4 13 -8 30 -8 19 0 33 7 40 21 6 11 19 19 28 18 34 -3 41 2 57
35 10 21 31 41 53 52 63 30 112 66 125 93 16 33 106 95 179 122 50 19 73 38
192 164 141 149 249 240 273 231 27 -11 59 113 33 129 -5 3 -37 -18 -72 -48z"/>
<path d="M8070 7769 c-46 -28 -90 -70 -90 -86 0 -22 37 -14 54 12 9 14 34 36
56 50 66 41 47 64 -20 24z"/>
<path d="M7510 7703 c-29 -31 -59 -72 -68 -89 -20 -43 -7 -75 57 -138 46 -45
51 -48 87 -42 54 9 144 57 168 89 25 34 16 43 -24 22 -18 -9 -41 -14 -52 -12
-10 3 -36 -1 -56 -10 -44 -18 -96 -6 -132 32 -34 36 -15 51 78 59 42 3 93 11
112 16 30 9 37 8 51 -10 15 -17 19 -18 29 -5 9 11 8 20 -9 44 -27 37 -47 44
-124 39 l-62 -3 3 33 c2 17 1 32 -1 32 -3 0 -28 -26 -57 -57z"/>
<path d="M7850 7650 c-20 -12 -7 -23 53 -45 71 -27 127 -70 127 -99 0 -13 -18
-43 -41 -70 -38 -43 -44 -46 -89 -46 -62 0 -88 -10 -148 -58 -44 -34 -58 -39
-144 -51 -53 -7 -101 -10 -107 -7 -6 4 -11 25 -11 47 0 31 -8 47 -37 80 -35
39 -90 75 -99 66 -3 -3 13 -26 35 -51 51 -58 66 -85 54 -97 -5 -5 -31 14 -61
46 -44 47 -58 55 -88 55 -20 0 -47 -8 -60 -19 -13 -10 -67 -36 -119 -56 -52
-20 -98 -43 -102 -50 -5 -7 -21 -15 -38 -17 -40 -4 -41 -37 -2 -56 34 -16 39
-62 7 -62 -33 0 -73 46 -66 76 7 27 3 28 -57 15 -23 -6 -59 -13 -79 -16 -24
-4 -55 -21 -83 -45 l-45 -39 58 2 c55 2 57 1 57 -23 0 -18 -6 -26 -22 -28 -22
-3 -91 28 -132 59 -13 11 -31 19 -39 19 -9 0 -59 -24 -111 -54 -53 -30 -116
-60 -141 -67 -57 -16 -67 -24 -50 -44 9 -11 31 -15 76 -15 59 0 67 -3 103 -35
21 -19 45 -35 53 -35 7 0 41 9 73 21 33 12 105 25 159 30 105 10 168 32 200
68 23 25 35 26 51 4 11 -15 15 -16 30 -3 10 8 26 33 36 55 17 38 18 38 18 12
1 -15 7 -30 14 -33 7 -2 66 7 132 21 139 29 145 30 145 11 0 -47 104 -111 171
-104 32 3 30 5 -40 33 -126 52 -127 95 -1 69 110 -23 138 -37 142 -71 l3 -28
89 -3 c227 -7 426 132 426 299 0 31 6 63 14 74 22 30 63 10 95 -46 23 -42 24
-49 13 -87 -15 -48 -65 -111 -135 -169 -55 -45 -79 -59 -177 -99 -195 -80
-189 -79 -385 -79 -167 0 -183 2 -220 22 -22 12 -55 29 -72 37 -18 9 -40 31
-50 49 -16 30 -18 31 -21 9 -4 -25 -1 -30 67 -113 44 -55 42 -77 -5 -40 -35
28 -52 16 -22 -16 44 -48 142 -85 283 -108 49 -8 92 -12 96 -9 4 2 62 9 130
14 77 6 131 16 145 25 13 8 33 15 44 15 59 0 275 118 360 196 84 78 94 110 91
266 -2 64 -75 130 -182 164 -72 23 -89 39 -89 85 0 34 -3 39 -27 45 -16 4 -34
16 -41 26 -15 21 -93 62 -137 72 -16 4 -37 9 -45 11 -8 3 -22 0 -30 -5z m-500
-312 c23 -38 26 -90 6 -107 -11 -9 -15 -7 -19 10 -5 20 -10 22 -64 16 -32 -3
-89 -16 -127 -27 -76 -24 -111 -21 -122 12 -5 16 -1 27 15 39 38 31 205 87
264 88 20 1 32 -7 47 -31z m-511 -152 c57 -43 76 -86 36 -86 -16 0 -85 78 -85
97 0 19 12 16 49 -11z m-235 -95 c25 -27 9 -49 -23 -32 -18 10 -51 59 -51 76
0 10 54 -22 74 -44z m1720 -22 c-34 -61 -68 -99 -89 -99 -15 0 -14 3 2 23 40
51 106 127 110 127 2 0 -8 -23 -23 -51z m-1812 -29 c-4 -29 -31 -62 -43 -54
-13 8 -11 58 3 72 20 20 43 10 40 -18z m358 0 c0 -5 -12 -10 -26 -10 -14 0
-23 4 -19 10 3 6 15 10 26 10 10 0 19 -4 19 -10z"/>
<path d="M6688 7624 c-16 -8 -28 -17 -28 -19 0 -12 37 -3 60 15 30 24 8 26
-32 4z"/>
<path d="M9079 7605 c-35 -19 -61 -72 -57 -115 2 -28 10 -38 36 -52 19 -9 36
-19 39 -22 12 -12 -23 -39 -99 -77 -86 -43 -87 -42 -102 28 -10 45 -25 53 -84
46 -42 -5 -52 -9 -52 -25 0 -10 -7 -33 -16 -49 -12 -24 -13 -33 -3 -45 17 -20
65 -45 81 -42 7 2 13 -2 13 -9 0 -13 -27 -32 -215 -157 -69 -46 -147 -102
-175 -125 -27 -23 -62 -45 -76 -48 -15 -3 -37 -18 -49 -35 -31 -42 -131 -104
-193 -118 -76 -18 -117 -43 -164 -98 -59 -70 -110 -92 -209 -92 -91 0 -111 -9
-191 -89 -51 -50 -53 -51 -111 -51 -49 0 -66 -5 -98 -28 -21 -16 -45 -37 -53
-46 -25 -30 -96 -75 -154 -96 -39 -15 -84 -46 -149 -104 -51 -45 -129 -109
-173 -143 -44 -33 -111 -86 -149 -117 -49 -40 -77 -56 -99 -56 -21 0 -39 -10
-63 -36 -19 -20 -31 -40 -28 -46 10 -17 -37 -58 -67 -58 -26 0 -28 -3 -23 -29
4 -20 2 -30 -10 -34 -17 -7 -23 -47 -6 -47 5 0 42 29 82 65 79 70 102 71 44 3
-81 -94 -22 -63 121 63 169 150 181 159 221 159 54 0 113 33 210 119 221 194
273 227 337 215 49 -9 113 24 255 133 219 166 322 230 403 248 89 20 113 34
267 160 172 140 192 155 206 155 8 0 18 9 24 19 5 11 67 52 137 91 161 91 288
177 333 225 34 37 174 135 191 135 24 0 0 -26 -85 -95 -52 -41 -102 -85 -111
-97 -31 -45 7 -29 104 45 54 41 143 104 197 139 105 69 132 92 115 103 -12 7
-62 -17 -110 -53 l-33 -26 3 49 c4 56 4 56 -75 40 -39 -8 -39 -8 -32 20 9 34
-10 92 -34 105 -25 13 -40 12 -71 -5z m51 -50 c10 -12 9 -20 -4 -40 -22 -34
-46 -33 -46 3 0 26 15 52 31 52 4 0 12 -7 19 -15z m-300 -190 c15 -18 6 -45
-14 -45 -17 0 -28 24 -20 45 8 19 18 19 34 0z m-1480 -1054 c0 -12 -78 -81
-92 -81 -6 0 -26 -17 -43 -37 -39 -45 -95 -81 -95 -61 0 7 30 40 67 73 37 33
78 72 92 88 24 25 71 38 71 18z m-690 -516 c-9 -11 -16 -13 -23 -6 -7 7 -6 15
3 26 9 11 16 13 23 6 7 -7 6 -15 -3 -26z"/>
<path d="M5950 7558 c-176 -23 -426 -83 -535 -128 -50 -21 -93 -47 -114 -69
-19 -20 -38 -37 -43 -37 -4 -1 -12 -2 -18 -3 -8 -1 -15 -31 -7 -31 9 0 193 54
442 130 350 106 400 118 426 102 47 -29 93 -1 58 36 -23 25 -19 25 -209 0z"/>
<path d="M6703 7555 c-3 -9 -3 -18 0 -21 9 -9 27 6 27 22 0 19 -19 18 -27 -1z"/>
<path d="M6422 7533 c-29 -14 -52 -26 -50 -28 5 -5 111 16 130 26 10 5 18 14
18 19 0 17 -43 9 -98 -17z"/>
<path d="M6600 7526 c-60 -17 -139 -58 -122 -64 17 -5 123 36 154 60 26 20 27
20 -32 4z"/>
<path d="M6068 7413 c-21 -8 -38 -19 -38 -23 0 -12 61 7 79 25 19 19 7 18 -41
-2z"/>
<path d="M6240 7396 c-156 -55 -328 -127 -341 -142 -8 -10 4 -8 46 6 139 48
100 5 -45 -50 -57 -22 -105 -42 -109 -45 -23 -24 136 -35 184 -13 22 10 28 9
35 -2 7 -12 15 -9 38 13 29 28 31 28 60 13 49 -26 72 -21 72 13 0 37 19 50 36
26 22 -30 89 -15 128 29 44 47 268 144 312 134 29 -6 -74 -56 -163 -78 -41
-10 -77 -20 -79 -23 -7 -7 18 -67 28 -67 6 0 26 9 45 21 18 11 61 27 95 35 34
8 87 29 117 47 31 17 81 36 111 43 42 8 55 15 55 29 0 12 -13 22 -45 31 -57
17 -53 18 -47 -6 7 -29 -9 -34 -31 -10 -18 20 -21 20 -98 5 -43 -8 -88 -15
-99 -15 -20 1 -20 1 -1 15 33 25 13 25 -60 1 -69 -24 -254 -68 -254 -60 0 11
68 44 91 44 22 0 39 15 39 36 0 9 -30 2 -120 -30z"/>
<path d="M5123 7334 c-6 -17 33 -64 54 -64 9 0 6 7 -7 20 -11 11 -20 29 -20
40 0 24 -18 27 -27 4z"/>
<path d="M4877 7183 c-14 -13 -6 -22 26 -28 36 -7 91 10 82 25 -7 11 -98 14
-108 3z"/>
<path d="M6063 7154 c-8 -21 13 -42 28 -27 13 13 5 43 -11 43 -6 0 -13 -7 -17
-16z"/>
<path d="M5369 7139 c24 -10 123 -44 220 -75 337 -106 986 -318 994 -325 5 -4
3 -16 -5 -28 -18 -29 -2 -38 82 -46 78 -7 260 -64 260 -81 0 -26 -64 -73 -231
-168 -197 -113 -980 -578 -1021 -608 -28 -19 -38 -48 -18 -48 20 0 108 51 697
402 72 43 138 78 146 78 8 0 37 18 63 40 27 22 97 68 156 102 130 74 268 181
268 207 0 22 -65 58 -235 131 -66 28 -135 63 -153 77 -25 19 -53 27 -110 34
-49 6 -87 17 -104 29 -15 11 -34 20 -42 20 -8 0 -72 18 -143 40 -549 172 -791
241 -843 239 -21 0 -18 -4 19 -20z"/>
<path d="M8884 7086 c-10 -8 -16 -17 -12 -21 8 -8 48 13 48 25 0 14 -13 12
-36 -4z"/>
<path d="M8800 7021 c-14 -27 9 -40 27 -16 17 24 17 35 -2 35 -8 0 -19 -9 -25
-19z"/>
<path d="M6663 6896 c-61 -56 -53 -68 11 -16 27 22 52 40 57 40 5 0 9 5 9 10
0 21 -30 8 -77 -34z"/>
<path d="M9665 6925 c-5 -1 -38 -11 -72 -20 -72 -21 -84 -38 -20 -29 59 8 137
34 137 45 0 9 -23 11 -45 4z"/>
<path d="M9683 6863 c-35 -7 -27 -23 10 -23 41 0 77 10 77 21 0 9 -46 10 -87
2z"/>
<path d="M9348 6844 c-120 -21 -266 -71 -273 -93 -6 -20 10 -71 22 -71 4 0 44
12 88 27 62 20 75 28 60 34 -11 4 -31 8 -45 8 -46 2 2 32 56 36 41 3 197 55
213 71 8 7 -42 2 -121 -12z"/>
<path d="M9541 6824 c-19 -8 -32 -17 -29 -20 7 -6 100 16 113 27 15 15 -47 9
-84 -7z"/>
<path d="M9845 6833 c-11 -2 -72 -16 -135 -29 -164 -36 -340 -85 -340 -95 0
-13 12 -11 119 11 102 22 145 25 136 11 -3 -5 -20 -13 -38 -16 -17 -4 -58 -18
-89 -31 -32 -13 -87 -28 -123 -33 -104 -15 -196 -70 -148 -88 18 -7 118 17
243 58 47 16 111 32 143 35 36 4 65 14 75 24 10 10 44 26 77 35 37 10 69 27
84 43 13 15 34 31 45 37 47 24 10 52 -49 38z m-25 -53 c0 -5 -9 -10 -20 -10
-11 0 -20 5 -20 10 0 6 9 10 20 10 11 0 20 -4 20 -10z m-105 -20 c4 -6 -5 -10
-20 -10 -15 0 -24 4 -20 10 3 6 12 10 20 10 8 0 17 -4 20 -10z"/>
<path d="M8973 6733 c9 -2 25 -2 35 0 9 3 1 5 -18 5 -19 0 -27 -2 -17 -5z"/>
<path d="M9805 6570 c-4 -6 5 -10 20 -10 15 0 24 4 20 10 -3 6 -12 10 -20 10
-8 0 -17 -4 -20 -10z"/>
<path d="M9700 6553 c-66 -12 -313 -74 -344 -87 -38 -16 -43 -25 -25 -43 21
-21 -1 -31 -119 -58 -64 -15 -127 -31 -139 -36 -38 -15 -26 -29 25 -29 54 0
67 -7 51 -27 -17 -20 13 -17 127 12 l99 25 22 -26 c12 -16 27 -25 36 -21 8 3
25 -2 38 -11 51 -36 403 -14 694 43 69 13 177 32 238 41 117 17 140 25 119 47
-9 8 -71 13 -207 17 -106 3 -197 8 -201 12 -4 5 1 17 10 27 17 19 17 20 -3 30
-11 6 -59 11 -107 11 -67 0 -92 4 -106 17 -17 15 -28 14 -163 -12 -148 -28
-198 -28 -158 0 11 8 42 19 69 25 66 16 104 31 104 41 0 9 -16 10 -60 2z"/>
<path d="M8062 6448 c-32 -32 9 -39 48 -8 l25 20 -30 0 c-17 0 -36 -5 -43 -12z"/>
<path d="M7875 6320 c-12 -4 -26 -15 -33 -23 -18 -21 -3 -29 78 -43 36 -6 73
-15 84 -19 14 -6 17 -4 14 11 -2 14 -16 21 -51 28 -41 7 -47 11 -47 32 0 25
-11 28 -45 14z"/>
<path d="M8973 6283 c9 -2 23 -2 30 0 6 3 -1 5 -18 5 -16 0 -22 -2 -12 -5z"/>
<path d="M10225 6266 c-108 -17 -227 -44 -244 -55 -13 -8 -13 -12 0 -27 20
-25 88 -53 129 -54 l35 -1 -39 -17 c-35 -16 -37 -19 -22 -31 12 -10 14 -17 5
-27 -6 -8 -17 -14 -24 -14 -35 0 -24 -77 12 -86 37 -10 433 72 455 94 18 18 0
32 -28 22 -43 -17 -168 -25 -160 -11 4 6 3 18 -4 26 -12 14 7 22 107 45 59 13
82 34 89 82 9 52 -11 62 -130 65 -55 1 -137 -4 -181 -11z m-10 -196 c-3 -5
-12 -10 -20 -10 -8 0 -17 5 -20 10 -4 6 5 10 20 10 15 0 24 -4 20 -10z"/>
<path d="M8105 6241 c-11 -19 106 -45 140 -31 19 7 19 8 -5 17 -36 14 -129 23
-135 14z"/>
<path d="M8290 6210 c0 -12 67 -32 221 -65 68 -14 130 -28 137 -30 6 -3 12 2
12 9 0 19 -40 32 -206 66 -157 33 -164 34 -164 20z"/>
<path d="M8724 6122 c8 -14 72 -32 106 -31 24 1 24 1 -5 14 -45 20 -109 30
-101 17z"/>
<path d="M8903 6070 c25 -16 245 -70 282 -70 27 1 28 2 11 12 -50 29 -337 86
-293 58z"/>
<path d="M9354 5982 c13 -22 63 -41 170 -67 58 -13 117 -32 130 -40 16 -11 41
-15 73 -13 l48 4 -36 17 c-21 9 -108 34 -195 56 -88 21 -168 42 -178 47 -14 5
-17 4 -12 -4z"/>
<path d="M6323 5636 c-18 -20 -33 -48 -33 -61 0 -17 -4 -23 -14 -19 -28 11
-112 -50 -150 -109 -19 -29 -15 -77 8 -97 18 -14 28 12 19 48 -6 24 -4 25 10
14 13 -11 21 -11 46 3 63 32 156 176 149 232 l-3 27 -32 -38z m-103 -167 c-6
-10 -15 -19 -20 -19 -15 0 -12 38 3 43 20 7 28 -3 17 -24z"/>
<path d="M246 6902 c-3 -4 24 -25 60 -45 61 -36 71 -47 128 -139 14 -25 19
-26 37 -15 18 10 23 8 46 -18 68 -80 77 -89 81 -77 16 50 -80 157 -211 235
-98 59 -132 73 -141 59z"/>
<path d="M4657 6633 c-72 -58 -163 -133 -202 -165 -88 -73 -624 -446 -850
-590 -93 -60 -183 -122 -199 -138 l-28 -28 22 -22 c15 -15 20 -29 16 -46 -4
-16 -2 -24 6 -24 7 0 65 43 128 95 63 52 169 136 235 186 66 51 237 185 380
298 143 114 322 253 398 311 76 57 168 132 205 166 56 53 63 63 44 64 -14 0
-72 -40 -155 -107z"/>
<path d="M3995 6487 c-180 -97 -692 -427 -701 -452 -6 -16 45 -125 59 -125 12
0 153 107 282 215 61 50 135 110 166 132 31 23 68 56 83 75 15 18 69 65 119
103 134 104 131 126 -8 52z"/>
<path d="M1477 5703 c-4 -3 -7 -15 -7 -26 0 -16 3 -17 15 -7 8 7 15 19 15 26
0 15 -12 19 -23 7z"/>
<path d="M3225 5591 c-9 -16 7 -92 21 -98 25 -9 127 68 111 84 -4 3 -15 -1
-25 -10 -26 -24 -47 -21 -66 8 -17 26 -31 31 -41 16z"/>
<path d="M3170 5556 c0 -22 3 -27 11 -19 8 8 8 16 0 30 -9 16 -10 14 -11 -11z"/>
<path d="M2342 5461 c-43 -32 -57 -49 -49 -58 8 -7 67 30 96 61 34 37 5 34
-47 -3z"/>
<path d="M1660 5470 c0 -5 18 -19 39 -29 44 -23 84 -60 154 -144 45 -53 77
-72 77 -46 0 6 -20 40 -45 75 -43 60 -105 119 -152 143 -27 14 -73 15 -73 1z"/>
<path d="M1990 5224 c0 -11 19 -51 41 -89 52 -89 79 -149 80 -183 1 -25 1 -25
9 5 18 77 -32 210 -98 261 -29 23 -32 23 -32 6z"/>
<path d="M3430 5124 c0 -4 11 -17 25 -30 14 -13 25 -32 25 -44 0 -26 24 -26
57 0 20 16 41 20 99 20 72 0 92 10 57 28 -40 20 -88 22 -141 6 -51 -17 -53
-16 -75 5 -22 20 -47 28 -47 15z"/>
<path d="M2309 5082 c-43 -28 -89 -72 -75 -72 25 0 136 74 136 91 0 15 -13 11
-61 -19z"/>
<path d="M2349 4976 c-37 -24 -74 -54 -83 -67 -25 -36 -3 -44 40 -15 56 38
119 36 164 -4 26 -23 37 -27 51 -19 24 13 54 57 45 67 -4 4 -33 12 -64 17 -52
9 -57 13 -60 38 -2 15 -9 27 -15 27 -7 -1 -42 -20 -78 -44z"/>
<path d="M3812 4947 c-32 -34 -27 -39 13 -16 19 12 35 25 35 30 0 17 -26 9
-48 -14z"/>
<path d="M3727 4882 c-31 -34 -15 -58 17 -26 17 16 22 44 8 44 -5 0 -16 -8
-25 -18z"/>
<path d="M2630 4801 c0 -56 -6 -61 -83 -61 -48 -1 -50 -2 -33 -15 11 -8 34
-15 51 -15 18 0 53 -14 85 -35 42 -27 65 -35 101 -35 33 0 64 -9 105 -31 44
-23 66 -29 89 -24 84 18 104 17 138 -4 43 -26 57 -27 57 -1 0 32 -67 60 -145
60 -42 0 -78 6 -98 17 -18 9 -65 26 -105 39 -72 22 -112 46 -112 68 0 31 -23
86 -35 86 -11 0 -15 -13 -15 -49z"/>
<path d="M4400 4820 c0 -27 -2 -30 -25 -24 -14 3 -40 3 -59 0 -39 -8 -129 -83
-122 -102 3 -7 -5 -25 -17 -40 l-21 -27 32 6 c44 9 49 -8 12 -43 -23 -22 -28
-30 -16 -30 23 0 66 45 66 69 0 23 41 60 138 125 100 66 114 96 45 96 -30 0
-33 -3 -33 -30z"/>
<path d="M3607 4783 c-29 -27 -157 -137 -285 -247 -211 -180 -268 -236 -212
-206 54 29 344 272 468 393 106 103 128 149 29 60z"/>
<path d="M4625 4759 c-83 -48 -135 -86 -135 -100 0 -18 23 -8 93 41 146 101
166 130 42 59z"/>
<path d="M4475 4764 c-113 -59 -203 -133 -176 -142 6 -2 42 19 82 47 40 28 77
51 84 51 14 0 71 58 63 65 -2 3 -27 -6 -53 -21z"/>
<path d="M4550 4619 c-65 -35 -93 -59 -69 -59 19 0 129 69 129 81 0 12 3 13
-60 -22z"/>
<path d="M4415 4615 c-22 -13 -33 -24 -25 -25 16 0 80 36 80 45 0 10 -16 4
-55 -20z"/>
<path d="M4290 4535 c-20 -24 -5 -28 21 -6 19 16 20 20 8 21 -9 0 -22 -7 -29
-15z"/>
<path d="M3690 4485 c-10 -12 -10 -15 3 -15 8 0 20 7 27 15 10 12 10 15 -3 15
-8 0 -20 -7 -27 -15z"/>
<path d="M4196 4470 c-31 -24 -35 -30 -19 -30 19 0 40 18 57 48 10 17 6 15
-38 -18z"/>
<path d="M3483 4354 c-86 -58 -114 -72 -174 -90 -83 -25 -721 -470 -766 -534
-13 -18 -12 -20 14 -20 38 0 127 53 341 203 97 69 222 153 277 188 109 68 332
227 380 271 49 45 6 34 -72 -18z"/>
<path d="M3845 4247 c-11 -9 -14 -16 -8 -20 6 -4 22 2 34 13 18 14 20 19 8 20
-8 0 -23 -6 -34 -13z"/>
<path d="M4519 4170 c-64 -33 -81 -76 -20 -51 34 15 76 57 64 64 -4 3 -24 -3
-44 -13z"/>
<path d="M4828 4169 c-21 -12 -24 -39 -4 -39 7 0 19 7 26 15 17 21 1 37 -22
24z"/>
<path d="M4987 4155 c-15 -14 -39 -25 -52 -25 -12 0 -49 -20 -82 -44 -32 -24
-95 -62 -141 -85 -46 -23 -131 -70 -190 -105 -132 -78 -172 -99 -179 -92 -11
10 14 30 190 147 209 140 238 161 233 166 -6 6 -76 -31 -189 -101 -56 -35
-121 -73 -145 -85 -24 -12 -80 -49 -125 -82 -75 -56 -82 -59 -94 -43 -7 10
-13 21 -13 26 0 13 -35 9 -56 -6 -16 -13 -17 -18 -6 -35 18 -31 16 -36 -36
-68 l-49 -30 5 25 c4 22 2 23 -19 17 -64 -19 -212 -119 -287 -192 -19 -19 -43
-33 -57 -33 -14 0 -46 -19 -77 -45 -29 -24 -90 -69 -134 -99 -88 -59 -134
-106 -134 -137 0 -15 -7 -19 -35 -19 -23 0 -35 -5 -34 -12 3 -26 -2 -37 -42
-87 -23 -29 -40 -54 -37 -56 2 -2 66 37 141 87 75 50 140 88 143 85 4 -3 -14
-25 -40 -48 -37 -34 -46 -48 -46 -76 0 -38 -9 -41 -35 -13 -14 16 -21 17 -39
8 -41 -22 -176 -133 -176 -146 0 -7 7 -24 16 -37 10 -15 15 -38 12 -60 -2 -19
0 -35 5 -35 7 0 92 56 460 307 88 60 127 67 157 31 16 -20 27 -23 94 -23 93 0
105 17 19 27 -70 8 -83 13 -83 33 0 25 66 65 197 119 149 62 217 95 210 103
-3 3 -53 -9 -111 -27 -140 -42 -161 -36 -66 19 41 24 102 63 135 86 33 23 89
59 125 80 36 21 106 78 155 125 50 48 137 120 195 160 136 94 182 134 200 173
16 34 47 47 61 26 14 -23 99 71 99 111 0 16 -13 12 -43 -15z m-296 -235 c-24
-21 -61 -27 -61 -10 0 14 32 29 60 29 l25 0 -24 -19z m-111 -60 c0 -13 -118
-100 -136 -100 -24 0 -15 30 12 40 14 6 42 24 62 40 37 30 62 38 62 20z m-366
-154 c-7 -18 -32 -28 -46 -20 -6 4 -1 12 13 20 31 17 40 17 33 0z m-155 -93
c-17 -23 -52 -52 -61 -53 -20 0 -4 30 25 48 40 26 53 27 36 5z"/>
<path d="M4648 4139 c-28 -16 -21 -30 7 -17 14 6 25 15 25 20 0 11 -11 10 -32
-3z"/>
<path d="M5538 4083 c-110 -148 -117 -163 -67 -163 22 0 40 9 59 30 23 25 36
30 74 30 25 0 46 2 46 4 0 2 -11 28 -25 58 -14 29 -25 61 -25 71 0 30 -25 18
-62 -30z"/>
<path d="M3413 4061 c-67 -37 -153 -100 -153 -112 0 -5 15 -2 33 7 50 26 177
115 177 125 0 12 2 13 -57 -20z"/>
<path d="M4469 4010 c-14 -11 -18 -19 -11 -20 15 0 72 28 72 35 0 13 -40 3
-61 -15z"/>
<path d="M3603 4013 c-7 -2 -13 -9 -13 -14 0 -15 53 -6 58 9 4 12 -21 15 -45
5z"/>
<path d="M4263 4013 c-7 -2 -13 -9 -13 -14 0 -15 53 -6 58 9 4 12 -21 15 -45
5z"/>
<path d="M4180 3945 c-10 -12 -10 -15 3 -15 8 0 20 7 27 15 10 12 10 15 -3 15
-8 0 -20 -7 -27 -15z"/>
<path d="M4014 3832 c-43 -27 -126 -79 -184 -117 -230 -149 -269 -168 -255
-125 9 28 -5 25 -53 -9 -51 -37 -64 -58 -24 -37 44 23 62 20 62 -8 0 -14 4
-27 9 -30 15 -10 382 240 531 361 36 29 -13 9 -86 -35z"/>
<path d="M3582 3808 c-19 -19 -14 -30 10 -26 13 2 24 11 26 21 4 20 -18 23
-36 5z"/>
<path d="M3766 3755 c-11 -8 -17 -17 -14 -21 6 -6 68 23 68 31 0 11 -36 4 -54
-10z"/>
<path d="M3415 3684 c-27 -14 -63 -38 -80 -53 -16 -16 -58 -47 -92 -70 -61
-41 -79 -58 -70 -67 2 -3 62 34 133 82 71 48 144 93 162 100 17 8 32 19 32 24
0 17 -33 11 -85 -16z"/>
<path d="M5680 3657 c-62 -31 -92 -59 -78 -73 4 -3 42 11 84 32 94 46 133 48
173 10 18 -17 50 -32 90 -41 85 -20 160 -60 165 -88 3 -12 8 -42 13 -67 6 -34
14 -48 35 -58 15 -7 36 -28 48 -46 21 -35 45 -50 61 -40 16 9 10 28 -15 49
-14 11 -47 63 -74 115 -56 110 -80 130 -182 155 -38 9 -95 32 -126 51 -72 43
-109 43 -194 1z"/>
<path d="M5444 3645 c-4 -8 -1 -22 6 -30 12 -14 77 -32 86 -23 10 11 -10 39
-37 53 -36 19 -48 19 -55 0z"/>
<path d="M3419 3423 c-101 -67 -94 -62 -86 -69 15 -15 187 93 187 116 0 18
-17 10 -101 -47z"/>
<path d="M4500 3341 c-99 -32 -292 -183 -267 -207 3 -3 32 18 66 46 106 88
208 127 306 117 113 -12 271 -124 370 -263 72 -101 83 -81 25 42 -49 102 -161
202 -280 248 -50 20 -181 30 -220 17z"/>
<path d="M4096 3141 c75 -38 102 -39 72 -4 -19 23 -72 43 -114 43 -35 0 -34
-2 42 -39z"/>
<path d="M3110 3015 c-10 -12 -9 -15 8 -15 11 0 25 7 32 15 10 12 9 15 -8 15
-11 0 -25 -7 -32 -15z"/>
<path d="M5083 2913 c-7 -2 -13 -13 -13 -24 0 -15 7 -19 37 -19 24 0 48 -9 70
-26 27 -20 40 -24 61 -19 70 19 100 11 150 -38 44 -43 82 -61 82 -38 0 17 -94
104 -127 117 -18 8 -50 14 -72 14 -22 0 -63 9 -91 20 -50 20 -74 23 -97 13z"/>
<path d="M5528 2804 c-12 -12 -9 -42 5 -51 6 -4 44 -8 82 -8 91 0 150 -28 230
-110 112 -115 168 -239 190 -425 8 -69 24 -142 39 -183 14 -37 26 -80 26 -95
0 -45 16 -52 109 -52 143 0 150 28 10 37 -90 7 -99 15 -99 89 0 19 -6 47 -14
63 -8 15 -19 76 -25 135 -5 59 -14 113 -20 119 -5 7 -24 55 -40 106 -37 114
-73 172 -156 250 -84 78 -174 122 -262 128 -38 3 -71 2 -75 -3z"/>
<path d="M4172 2408 c-14 -14 -16 -38 -4 -38 12 0 32 23 32 37 0 16 -12 17
-28 1z"/>
<path d="M6814 1891 c-69 -31 -61 -38 52 -43 87 -4 110 -8 134 -26 16 -12 38
-22 50 -22 53 0 -7 54 -96 85 -83 29 -88 30 -140 6z"/>
<path d="M6534 1868 c-9 -15 50 -68 76 -68 28 0 25 17 -9 51 -31 31 -55 37
-67 17z"/>
<path d="M7242 1738 c-16 -16 -15 -68 1 -68 18 0 57 37 57 54 0 8 -7 17 -16
20 -22 8 -28 8 -42 -6z"/>
<path d="M9140 1675 c0 -2 30 -13 68 -25 103 -34 150 -65 239 -158 83 -86 110
-99 81 -39 -42 86 -166 186 -256 205 -53 12 -132 22 -132 17z"/>
<path d="M7392 1637 c-18 -21 -1 -30 42 -21 26 4 49 -1 93 -21 73 -33 119 -76
148 -140 12 -27 46 -77 75 -110 67 -77 79 -105 86 -212 3 -48 10 -103 16 -121
5 -18 13 -63 16 -100 11 -109 27 -71 26 63 -1 125 -17 247 -40 303 -7 18 -41
62 -74 96 -35 36 -65 78 -70 97 -10 36 -72 117 -117 153 -36 28 -181 37 -201
13z"/>
<path d="M9997 1538 c-6 -18 12 -50 24 -43 15 10 11 55 -5 55 -8 0 -16 -6 -19
-12z"/>
<path d="M9924 1519 c-6 -8 -14 -23 -18 -34 -7 -19 -6 -19 15 1 12 12 20 27
17 34 -3 9 -6 9 -14 -1z"/>
<path d="M9835 1500 c-8 -14 3 -30 21 -30 8 0 14 9 14 20 0 21 -24 28 -35 10z"/>
<path d="M9195 1236 c-18 -13 -18 -14 1 -19 40 -12 155 -29 161 -24 11 12 -7
37 -32 47 -38 14 -108 12 -130 -4z"/>
<path d="M8500 1015 c-11 -13 -5 -15 41 -15 50 1 52 2 35 15 -25 19 -60 19
-76 0z"/>
<path d="M8643 938 c13 -29 30 -54 38 -56 8 -1 30 11 49 27 l35 29 -37 -1
c-25 -1 -45 6 -60 20 -44 38 -48 35 -25 -19z"/>
<path d="M8215 794 c-72 -19 -119 -40 -165 -74 -59 -44 -86 -50 -95 -21 -8 27
-69 79 -101 87 -30 8 -77 -11 -72 -28 3 -7 23 -18 45 -24 60 -18 81 -31 98
-63 8 -16 22 -31 31 -35 10 -4 57 13 118 41 l101 48 125 0 c106 0 132 -3 170
-21 47 -22 82 -51 115 -98 17 -23 30 -29 85 -36 110 -13 143 -26 195 -77 55
-55 105 -128 105 -156 0 -10 5 -15 10 -12 25 15 -41 156 -95 203 -62 55 -127
82 -197 82 l-62 0 -65 68 c-52 54 -79 74 -126 91 -58 22 -178 35 -220 25z"/>
<path d="M6280 639 c0 -24 23 -21 28 4 2 10 -3 17 -12 17 -10 0 -16 -9 -16
-21z"/>
<path d="M8680 315 c12 -15 77 -32 86 -22 9 8 -52 37 -77 37 -18 0 -19 -3 -9
-15z"/>
<path d="M8860 291 c0 -12 26 -21 58 -21 26 1 26 1 8 15 -22 16 -66 20 -66 6z"/>
<path d="M9113 273 c-35 -14 -2 -27 120 -46 39 -6 33 8 -10 26 -48 18 -94 27
-110 20z"/>
<path d="M9010 230 c-12 -8 -9 -10 13 -10 15 0 27 5 27 10 0 13 -20 13 -40 0z"/>
<path d="M478 5861 c-25 -16 -48 -36 -51 -46 -11 -28 -8 -45 8 -45 8 0 15 3
15 8 0 4 18 31 40 60 22 28 38 52 37 52 -2 0 -24 -13 -49 -29z"/>
<path d="M996 5652 c-11 -17 22 -33 61 -30 26 2 38 8 38 18 0 11 -13 16 -47
18 -25 2 -49 -1 -52 -6z"/>
<path d="M869 5612 c-57 -37 -182 -169 -209 -221 -11 -22 -20 -51 -20 -65 0
-24 -40 -66 -64 -66 -23 -1 -58 -41 -94 -107 -50 -91 -66 -98 -168 -73 -92 23
-94 23 -94 10 0 -21 168 -90 220 -90 22 0 29 6 33 29 4 19 16 34 34 43 20 9
29 22 31 43 6 59 23 105 43 115 31 17 39 3 39 -70 0 -37 3 -75 6 -84 11 -29
24 -17 24 22 0 20 8 53 19 72 10 20 21 69 26 115 7 74 10 82 43 113 25 24 36
43 38 68 3 45 14 58 101 115 66 43 79 59 48 59 -6 0 -31 -13 -56 -28z"/>
<path d="M12308 369 c-39 -23 -6 -44 42 -28 38 14 40 39 3 39 -16 0 -36 -5
-45 -11z"/>
<path d="M12185 300 c-4 -6 5 -10 19 -10 14 0 26 5 26 10 0 6 -9 10 -19 10
-11 0 -23 -4 -26 -10z"/>
</g>
</svg>
